<?xml version="1.0" encoding="utf-8"?>
<!-- Generator: Adobe Illustrator 20.0.0, SVG Export Plug-In . SVG Version: 6.00 Build 0)  -->
<svg version="1.1" id="Calque_1" xmlns="http://www.w3.org/2000/svg" xmlns:xlink="http://www.w3.org/1999/xlink" x="0px" y="0px"
	 viewBox="0 0 274.3 94" style="enable-background:new 0 0 274.3 94;" xml:space="preserve">
<style type="text/css">
	.st01{fill:url(#SVGID_01_);}
	.st011{fill:url(#SVGID_02_);}
	.st02{fill:url(#SVGID_3_);}
	.st3{fill:url(#SVGID_4_);}
	.st4{fill:url(#SVGID_5_);}
	.st5{fill:url(#SVGID_6_);}
	.st6{fill:url(#SVGID_7_);}
	.st7{fill:url(#SVGID_8_);}
	.st8{fill:url(#SVGID_9_);}
	.st9{fill:url(#SVGID_10_);}
	.st10{fill:url(#SVGID_11_);}
	.st11{fill:url(#SVGID_12_);}
</style>
<g>
	<linearGradient id="SVGID_01_" gradientUnits="userSpaceOnUse" x1="5.3333" y1="34" x2="5.3333" y2="94">
		<stop  offset="0" style="stop-color:#77C6A1"/>
		<stop  offset="1" style="stop-color:#07282B"/>
	</linearGradient>
	<path class="st01" d="M5.3,94L5.3,94C2.4,94,0,91.6,0,88.7V39.3C0,36.4,2.4,34,5.3,34h0c2.9,0,5.3,2.4,5.3,5.3v49.3
		C10.7,91.6,8.3,94,5.3,94z"/>
	<linearGradient id="SVGID_02_" gradientUnits="userSpaceOnUse" x1="29.303" y1="14" x2="29.303" y2="94">
		<stop  offset="0" style="stop-color:#77C6A1"/>
		<stop  offset="1" style="stop-color:#07282B"/>
	</linearGradient>
	<path class="st011" d="M29.3,94L29.3,94c-2.9,0-5.3-2.4-5.3-5.3V19.3c0-2.9,2.4-5.3,5.3-5.3h0c2.9,0,5.3,2.4,5.3,5.3v69.3
		C34.6,91.6,32.2,94,29.3,94z"/>
	<linearGradient id="SVGID_3_" gradientUnits="userSpaceOnUse" x1="53.2727" y1="24" x2="53.2727" y2="94">
		<stop  offset="0" style="stop-color:#77C6A1"/>
		<stop  offset="1" style="stop-color:#07282B"/>
	</linearGradient>
	<path class="st02" d="M53.3,94L53.3,94c-2.9,0-5.3-2.4-5.3-5.3V29.3c0-2.9,2.4-5.3,5.3-5.3h0c2.9,0,5.3,2.4,5.3,5.3v59.3
		C58.6,91.6,56.2,94,53.3,94z"/>
	<linearGradient id="SVGID_4_" gradientUnits="userSpaceOnUse" x1="77.2424" y1="44" x2="77.2424" y2="94">
		<stop  offset="0" style="stop-color:#77C6A1"/>
		<stop  offset="1" style="stop-color:#07282B"/>
	</linearGradient>
	<path class="st3" d="M77.2,94L77.2,94c-2.9,0-5.3-2.4-5.3-5.3V49.3c0-2.9,2.4-5.3,5.3-5.3h0c2.9,0,5.3,2.4,5.3,5.3v39.3
		C82.6,91.6,80.2,94,77.2,94z"/>
	<linearGradient id="SVGID_5_" gradientUnits="userSpaceOnUse" x1="101.2121" y1="44" x2="101.2121" y2="94">
		<stop  offset="0" style="stop-color:#77C6A1"/>
		<stop  offset="1" style="stop-color:#07282B"/>
	</linearGradient>
	<path class="st4" d="M101.2,94L101.2,94c-2.9,0-5.3-2.4-5.3-5.3V49.3c0-2.9,2.4-5.3,5.3-5.3h0c2.9,0,5.3,2.4,5.3,5.3v39.3
		C106.5,91.6,104.2,94,101.2,94z"/>
	<linearGradient id="SVGID_6_" gradientUnits="userSpaceOnUse" x1="125.1818" y1="24" x2="125.1818" y2="94">
		<stop  offset="0" style="stop-color:#77C6A1"/>
		<stop  offset="1" style="stop-color:#07282B"/>
	</linearGradient>
	<path class="st5" d="M125.2,94L125.2,94c-2.9,0-5.3-2.4-5.3-5.3V29.3c0-2.9,2.4-5.3,5.3-5.3h0c2.9,0,5.3,2.4,5.3,5.3v59.3
		C130.5,91.6,128.1,94,125.2,94z"/>
	<linearGradient id="SVGID_7_" gradientUnits="userSpaceOnUse" x1="149.1515" y1="14" x2="149.1515" y2="94">
		<stop  offset="0" style="stop-color:#77C6A1"/>
		<stop  offset="1" style="stop-color:#07282B"/>
	</linearGradient>
	<path class="st6" d="M149.2,94L149.2,94c-2.9,0-5.3-2.4-5.3-5.3V19.3c0-2.9,2.4-5.3,5.3-5.3h0c2.9,0,5.3,2.4,5.3,5.3v69.3
		C154.5,91.6,152.1,94,149.2,94z"/>
	<linearGradient id="SVGID_8_" gradientUnits="userSpaceOnUse" x1="173.1212" y1="24" x2="173.1212" y2="94">
		<stop  offset="0" style="stop-color:#77C6A1"/>
		<stop  offset="1" style="stop-color:#07282B"/>
	</linearGradient>
	<path class="st7" d="M173.1,94L173.1,94c-2.9,0-5.3-2.4-5.3-5.3V29.3c0-2.9,2.4-5.3,5.3-5.3h0c2.9,0,5.3,2.4,5.3,5.3v59.3
		C178.5,91.6,176.1,94,173.1,94z"/>
	<linearGradient id="SVGID_9_" gradientUnits="userSpaceOnUse" x1="197.0909" y1="14" x2="197.0909" y2="94">
		<stop  offset="0" style="stop-color:#77C6A1"/>
		<stop  offset="1" style="stop-color:#07282B"/>
	</linearGradient>
	<path class="st8" d="M197.1,94L197.1,94c-2.9,0-5.3-2.4-5.3-5.3V19.3c0-2.9,2.4-5.3,5.3-5.3h0c2.9,0,5.3,2.4,5.3,5.3v69.3
		C202.4,91.6,200,94,197.1,94z"/>
	<linearGradient id="SVGID_10_" gradientUnits="userSpaceOnUse" x1="221.0606" y1="-9.094947e-13" x2="221.0606" y2="94">
		<stop  offset="0" style="stop-color:#77C6A1"/>
		<stop  offset="1" style="stop-color:#07282B"/>
	</linearGradient>
	<path class="st9" d="M221.1,94L221.1,94c-2.9,0-5.3-2.4-5.3-5.3V5.3c0-2.9,2.4-5.3,5.3-5.3h0c2.9,0,5.3,2.4,5.3,5.3v83.3
		C226.4,91.6,224,94,221.1,94z"/>
	<linearGradient id="SVGID_11_" gradientUnits="userSpaceOnUse" x1="245.0303" y1="14" x2="245.0303" y2="94">
		<stop  offset="0" style="stop-color:#77C6A1"/>
		<stop  offset="1" style="stop-color:#07282B"/>
	</linearGradient>
	<path class="st10" d="M245,94L245,94c-2.9,0-5.3-2.4-5.3-5.3V19.3c0-2.9,2.4-5.3,5.3-5.3l0,0c2.9,0,5.3,2.4,5.3,5.3v69.3
		C250.4,91.6,248,94,245,94z"/>
	<linearGradient id="SVGID_12_" gradientUnits="userSpaceOnUse" x1="269" y1="54" x2="269" y2="94">
		<stop  offset="0" style="stop-color:#77C6A1"/>
		<stop  offset="1" style="stop-color:#07282B"/>
	</linearGradient>
	<path class="st11" d="M269,94L269,94c-2.9,0-5.3-2.4-5.3-5.3V59.3c0-2.9,2.4-5.3,5.3-5.3l0,0c2.9,0,5.3,2.4,5.3,5.3v29.3
		C274.3,91.6,271.9,94,269,94z"/>
</g>
</svg>
