<svg id="ec919271-04d2-41c6-b41c-34a0ad4e3543" data-name="Calque 1" xmlns="http://www.w3.org/2000/svg" viewBox="0 0 54.18 54.18"><title>icon-panes</title><path d="M9.73,29.06v13a1.61,1.61,0,0,0,1.6,1.6H24.48a1.61,1.61,0,0,0,1.6-1.6v-13M15,38.62H13A4.76,4.76,0,0,1,15,34.71l1.14,1.64A2.76,2.76,0,0,0,15,38.62Z" style="fill:#fff"/><path d="M28.1,29.06v13a1.61,1.61,0,0,0,1.6,1.6H42.85a1.61,1.61,0,0,0,1.6-1.6v-13M40.71,39.19H31.59a.57.57,0,1,1,0-1.15h9.12a.57.57,0,0,1,0,1.15Zm0-2.06H31.59a.57.57,0,1,1,0-1.15h9.12a.57.57,0,0,1,0,1.15Z" style="fill:#fff"/><path d="M17.73,33.87a4.72,4.72,0,0,0-2.7.85l1.14,1.64h0a2.72,2.72,0,0,1,1.56-.49,2.76,2.76,0,0,1,2.75,2.75h2A4.76,4.76,0,0,0,17.73,33.87Z" style="fill:#79c6a1"/><path d="M9.73,12.1V23.86a1.61,1.61,0,0,0,1.6,1.6H42.85a1.61,1.61,0,0,0,1.6-1.6V12.1M36.31,22.61a1.4,1.4,0,0,1-1.37-1.7l-5.11-3.33-5,2.18s0,0,0,.06a1.4,1.4,0,0,1-2.53.83l-3.92,1.11a1.4,1.4,0,1,1-.27-1L22,19.7a1.4,1.4,0,0,1,2.39-.85l5.48-2.4,5.57,3.62a1.4,1.4,0,1,1,.82,2.53Z" style="fill:#fff"/><circle cx="29.87" cy="17.02" r="1.4" style="fill:#79c6a1"/><rect x="32.72" y="33.92" width="6.98" height="1.15" rx="0.57" ry="0.57" style="fill:#79c6a1"/><path d="M9.73,30.15V29.06a1.61,1.61,0,0,1,1.6-1.6H24.48a1.61,1.61,0,0,1,1.6,1.6v1.09Z" style="fill:#79c6a1"/><path d="M28.13,30.15V29.06a1.61,1.61,0,0,1,1.6-1.6H42.88a1.61,1.61,0,0,1,1.6,1.6v1.09Z" style="fill:#79c6a1"/><path d="M9.73,13.2V12.1a1.61,1.61,0,0,1,1.6-1.6H42.88a1.61,1.61,0,0,1,1.6,1.6V13.2Z" style="fill:#79c6a1"/></svg>