<svg id="73e7a27f-6cee-48fd-9692-f80c58c3d2e0" data-name="Calque 1" xmlns="http://www.w3.org/2000/svg" viewBox="0 0 54.18 54.18"><title>icon-user</title><path d="M27.09,8.36A18.73,18.73,0,1,0,45.82,27.09,18.73,18.73,0,0,0,27.09,8.36Zm0,21.78a6.53,6.53,0,1,1,6.53-6.53A6.53,6.53,0,0,1,27.08,30.14Z" style="fill:#fff"/><path d="M27.09,31.88c6.82,0,12.45,3.62,13.36,8.32a18.73,18.73,0,1,0-26.73,0C14.64,35.5,20.27,31.88,27.09,31.88Z" style="fill:none"/><path d="M33.45,33l-3.86,4.81-1.52-3.13h-2l-1.52,3.13L20.71,33c-3.71,1.43-6.38,4.06-7,7.17a18.71,18.71,0,0,0,26.73,0C39.85,37.09,37.17,34.46,33.45,33Z" style="fill:#79c6a1"/><circle cx="27.08" cy="33.53" r="1.56" style="fill:#013346"/><rect x="25.47" y="31.82" width="3.21" height="3.42" rx="1.6" ry="1.6" transform="translate(54.15 67.05) rotate(-180)" style="fill:#79c6a1"/></svg>