<svg id="01fe80e4-c295-41b5-9fd1-423738b9db9d" data-name="Calque 1" xmlns="http://www.w3.org/2000/svg" viewBox="0 0 54.18 54.18"><title>icon-table</title><path d="M41.58,12H12.47a1.61,1.61,0,0,0-1.6,1.6v27a1.61,1.61,0,0,0,1.6,1.6H41.58a1.61,1.61,0,0,0,1.6-1.6v-27A1.61,1.61,0,0,0,41.58,12ZM38.11,37.21H23A1.6,1.6,0,1,1,23,34H38.11a1.6,1.6,0,1,1,0,3.21Zm0-7.48H23a1.6,1.6,0,1,1,0-3.21H38.11a1.6,1.6,0,0,1,0,3.21Zm0-7.48H23A1.6,1.6,0,1,1,23,19H38.11a1.6,1.6,0,0,1,0,3.21Z" style="fill:#fff"/><path d="M10.87,14.67V13.58a1.61,1.61,0,0,1,1.6-1.6H41.58a1.61,1.61,0,0,1,1.6,1.6v1.09Z" style="fill:#79c6a1"/><rect x="14.13" y="18.35" width="4.6" height="4.6" rx="1.6" ry="1.6" transform="translate(37.09 4.22) rotate(90)" style="fill:#79c6a1"/><rect x="14.13" y="25.83" width="4.6" height="4.6" rx="1.6" ry="1.6" transform="translate(44.57 11.7) rotate(90)" style="fill:#79c6a1"/><rect x="14.13" y="33.31" width="4.6" height="4.6" rx="1.6" ry="1.6" transform="translate(52.05 19.18) rotate(90)" style="fill:#79c6a1"/><rect x="-0.04" y="0.07" width="54.13" height="54.13" style="fill:none;stroke:aqua;stroke-miterlimit:10;stroke-width:0.25px"/></svg>