<svg id="d32d0298-6475-452c-935f-ad6eb994720d" data-name="Calque 1" xmlns="http://www.w3.org/2000/svg" viewBox="0 0 54.18 54.18"><title>icon-image</title><path d="M42.26,13H11.93a2,2,0,0,0-2,2V37.27L20.76,28.4l2.33-1.91L25,28.83l1.27,1.57L33,22.17l2.88-3.51,2.1,4,6.26,12V15A2,2,0,0,0,42.26,13ZM17.93,22.46A3.09,3.09,0,1,1,21,19.37,3.09,3.09,0,0,1,17.93,22.46Z" style="fill:#fff"/><path d="M26.25,35.15l-3.59-4.43L10.52,40.66a1.82,1.82,0,0,0,1.24.49H42.42a1.82,1.82,0,0,0,1.45-.73L35.34,24.07Z" style="fill:#79c6a1"/></svg>