<svg id="4ee808ac-904e-40ca-9696-ac7e32090a31" data-name="Calque 1" xmlns="http://www.w3.org/2000/svg" viewBox="0 0 54.18 54.18"><title>icon-export</title><path d="M35.74,8.34a28.34,28.34,0,0,0-5.59.52,3,3,0,0,1,2.05.88l1.45,1.45,1.08,1.08a3.2,3.2,0,0,1,.94,2.27h.07c5.57,0,10.09-1.39,10.09-3.1S41.31,8.34,35.74,8.34Z" style="fill:#fff"/><path d="M23.46,27.89a.8.8,0,0,0,.8-.8V18.23h5.8a1,1,0,0,0,.73-.3l1.45-1.45h0l1.08-1.08a1.22,1.22,0,0,0,0-1.72L32.24,12.6h0l-1.45-1.45a1,1,0,0,0-.73-.3h-12a1.22,1.22,0,0,0-1.22,1.22v15a.8.8,0,0,0,.8.8Z" style="fill:#fff"/><path d="M32.56,29.43a1.55,1.55,0,0,0-.14-.29l0,0a2.29,2.29,0,0,0-.26-.31L32,28.7l-.29-.25-.09-.07c-.13-.1-.28-.19-.44-.28L31.09,28l-.42-.21-.16-.08-.6-.25-.16-.06-.53-.18L29,27.19l-.73-.2-.16,0-.66-.15-.29-.06-.71-.13-.18,0v.52a2.8,2.8,0,0,1-2.8,2.8H17.67a2.8,2.8,0,0,1-2.8-2.8v-.54h0l-.51.09-.35.07-.48.1-.38.09-.69.17-.35.1-.37.11-.38.13-.4.15-.43.18-.24.11L10,28l-.17.09-.42.27-.12.09L9,28.69l-.1.09a2.29,2.29,0,0,0-.26.31l0,.06a1.54,1.54,0,0,0-.14.27l0,.09a1.21,1.21,0,0,0-.06.34c0,2.06,5.44,3.73,12.14,3.73s12.14-1.67,12.14-3.73a1.21,1.21,0,0,0-.06-.34Z" style="fill:#79c6a1"/><path d="M8.36,34.79V40c0,2.06,5.44,3.73,12.14,3.73S32.65,42,32.65,40v-5.2C29.6,36.43,25,37.1,20.5,37.1S11.41,36.43,8.36,34.79Z" style="fill:#79c6a1"/><path d="M33.65,17.89,32.2,19.35a3,3,0,0,1-2.14.89h-3.8v.67c1.4,1.19,5.11,2,9.48,2,5.57,0,10.09-1.39,10.09-3.1V15.61c-2.55,1.36-6.38,1.93-10.09,1.93-.56,0-1.13,0-1.69,0Z" style="fill:#fff"/><path d="M34.14,25.91a5,5,0,0,1,2,4s0,0,0,0h0v1c5.38-.07,9.67-1.43,9.67-3.1V24c-2.55,1.36-6.38,1.93-10.09,1.93C35.2,25.95,34.67,25.93,34.14,25.91Z" style="fill:#fff"/></svg>