<svg id="0ad7b3ca-bbbf-4107-99d7-946d01eb5d46" data-name="Calque 1" xmlns="http://www.w3.org/2000/svg" viewBox="0 0 54.18 54.18"><title>icon-mutli-format</title><polygon points="13.28 15.81 13.31 20.64 9.14 23.08 4.95 20.69 4.92 15.86 9.09 13.42 13.28 15.81" style="fill:#fff"/><path d="M17.36,12.68a12.69,12.69,0,0,1,3.3-2.16c.5-.14,3.14,1.11,3.62,1.39,1,.55,1.31,4.19.77,5.15a12.69,12.69,0,0,1-3.3,2.16c-.5.14-3.14-1.11-3.62-1.39C17.16,17.28,16.81,13.64,17.36,12.68Z" style="fill:#fff"/><circle cx="33.29" cy="11.49" r="4.02" transform="translate(6.83 34.73) rotate(-60.33)" style="fill:#79c6a1"/><polygon points="20.28 26.48 20.31 31.31 16.14 33.75 11.95 31.36 11.92 26.53 16.09 24.09 20.28 26.48" style="fill:#fff"/><path d="M24.36,23.35a12.69,12.69,0,0,1,3.3-2.16c.5-.14,3.14,1.11,3.62,1.39,1,.55,1.31,4.19.77,5.15a12.69,12.69,0,0,1-3.3,2.16c-.5.14-3.14-1.11-3.62-1.39C24.16,28,23.81,24.31,24.36,23.35Z" style="fill:#fff"/><circle cx="40.29" cy="22.16" r="4.02" transform="translate(1.09 46.2) rotate(-60.33)" style="fill:#79c6a1"/><polygon points="27.28 37.15 27.31 41.98 23.14 44.42 18.95 42.03 18.92 37.2 23.09 34.77 27.28 37.15" style="fill:#fff"/><path d="M31.36,34a12.69,12.69,0,0,1,3.3-2.16c.5-.14,3.14,1.11,3.62,1.39,1,.55,1.31,4.19.77,5.15a12.69,12.69,0,0,1-3.3,2.16c-.5.14-3.14-1.11-3.62-1.39C31.16,38.62,30.81,35,31.36,34Z" style="fill:#fff"/><circle cx="47.29" cy="32.83" r="4.02" transform="translate(-4.64 57.67) rotate(-60.33)" style="fill:#79c6a1"/></svg>