<svg id="50fe6fde-de52-4dd3-bdef-9404ce2adf2d" data-name="Calque 1" xmlns="http://www.w3.org/2000/svg" viewBox="0 0 54.18 54.18"><title>icon-date</title><path d="M35.75,8.53H30.37V9.85a1.6,1.6,0,1,1-3.2,0V8.53H19V9.85a1.6,1.6,0,1,1-3.2,0V8.53H10.44a2,2,0,0,0-2,2V32.46a2,2,0,0,0,2,2H24.87a11.69,11.69,0,0,1,3.51-6.55,1.58,1.58,0,0,1-.21-.78V24.47a1.6,1.6,0,0,1,1.6-1.6h2.67a1.6,1.6,0,0,1,1.6,1.6V25a11.21,11.21,0,0,1,3.72-.16V10.53A2,2,0,0,0,35.75,8.53ZM18,19.08a1.6,1.6,0,0,1-1.6,1.6H13.76a1.6,1.6,0,0,1-1.6-1.6V16.41a1.6,1.6,0,0,1,1.6-1.6h2.67a1.6,1.6,0,0,1,1.6,1.6Zm8,8.05a1.6,1.6,0,0,1-1.6,1.6H21.76a1.6,1.6,0,0,1-1.6-1.6V24.47a1.6,1.6,0,0,1,1.6-1.6h2.67a1.6,1.6,0,0,1,1.6,1.6Zm0-8.05a1.6,1.6,0,0,1-1.6,1.6H21.76a1.6,1.6,0,0,1-1.6-1.6V16.41a1.6,1.6,0,0,1,1.6-1.6h2.67a1.6,1.6,0,0,1,1.6,1.6Z" style="fill:#fff"/><rect x="28.17" y="14.81" width="5.87" height="5.87" rx="1.6" ry="1.6" style="fill:#79c6a1"/><rect x="12.16" y="22.87" width="5.87" height="5.87" rx="1.6" ry="1.6" transform="translate(30.18 51.6) rotate(180)" style="fill:#79c6a1"/><path d="M36.4,26.71a9.71,9.71,0,1,0,9.71,9.71A9.72,9.72,0,0,0,36.4,26.71Zm1.06,8.64a1.06,1.06,0,1,1-2.12,0v-5a1.06,1.06,0,1,1,2.12,0Z" style="fill:#fff"/><rect x="37.2" y="35.64" width="2.12" height="5.29" rx="1.06" ry="1.06" transform="translate(-15.87 38.27) rotate(-45)" style="fill:#79c6a1"/></svg>