<svg id="fffeb622-fb53-41aa-81fc-b113c24fe01a" data-name="Calque 1" xmlns="http://www.w3.org/2000/svg" viewBox="0 0 54.18 54.18"><title>icon-cost-reduction2</title><path d="M26.93,14.63A12.46,12.46,0,1,0,39.4,27.09,12.48,12.48,0,0,0,26.93,14.63Zm1,18.19v1a.58.58,0,0,1-.58.58h-.51a.58.58,0,0,1-.58-.58V33a6.71,6.71,0,0,1-2.66-.58.45.45,0,0,1-.22-.55l.22-.68a.45.45,0,0,1,.63-.26,5.37,5.37,0,0,0,2.26.56c1.5,0,2.2-.75,2.2-1.69s-.59-1.52-2.11-2.08c-2-.72-3-1.85-3-3.21A3.22,3.22,0,0,1,26,21.41v-1a.58.58,0,0,1,.58-.58h.51a.58.58,0,0,1,.58.58v.83a5.87,5.87,0,0,1,2.26.51.45.45,0,0,1,.22.55l-.23.66a.44.44,0,0,1-.59.27,5.33,5.33,0,0,0-1.89-.46c-1.22,0-1.89.7-1.89,1.55s.68,1.36,2.15,1.92c2,.75,3,1.73,3,3.42A3.24,3.24,0,0,1,27.91,32.82Z" style="fill:#fff"/><path d="M26.93,10.15A16.94,16.94,0,1,0,43.87,27.09,16.94,16.94,0,0,0,26.93,10.15Zm0,30.69A13.75,13.75,0,1,1,40.68,27.09,13.76,13.76,0,0,1,26.93,40.84Z" style="fill:#fff"/><path d="M23.57,32.41a6.71,6.71,0,0,0,2.66.58v.83a.58.58,0,0,0,.58.58h.51a.58.58,0,0,0,.58-.58v-1a3.24,3.24,0,0,0,2.74-3.21c0-1.69-1-2.67-3-3.42-1.47-.56-2.15-1-2.15-1.92s.68-1.55,1.89-1.55a5.33,5.33,0,0,1,1.89.46.44.44,0,0,0,.59-.27l.23-.66a.45.45,0,0,0-.22-.55,5.87,5.87,0,0,0-2.26-.51v-.83a.58.58,0,0,0-.58-.58h-.51a.58.58,0,0,0-.58.58v1a3.22,3.22,0,0,0-2.41,3.1c0,1.36,1,2.48,3,3.21,1.52.56,2.11,1.1,2.11,2.08s-.7,1.69-2.2,1.69a5.37,5.37,0,0,1-2.26-.56.45.45,0,0,0-.63.26l-.22.68A.45.45,0,0,0,23.57,32.41Z" style="fill:#79c6a1"/><path d="M23.35,31.86l.22-.68a.45.45,0,0,1,.63-.26,5.37,5.37,0,0,0,2.26.56c1.5,0,2.2-.75,2.2-1.69s-.59-1.52-2.11-2.08c-2-.72-3-1.85-3-3.21A3.22,3.22,0,0,1,26,21.41v-1a.58.58,0,0,1,.58-.58h.51a.58.58,0,0,1,.58.58v.83a5.87,5.87,0,0,1,2.26.51.45.45,0,0,1,.22.55l-.23.66a.44.44,0,0,1-.59.27,5.33,5.33,0,0,0-1.89-.46c-1.22,0-1.89.7-1.89,1.55s.68,1.36,2.15,1.92c2,.75,3,1.73,3,3.42a3.24,3.24,0,0,1-2.74,3.21v1a.58.58,0,0,1-.58.58h-.51a.58.58,0,0,1-.58-.58V33a6.71,6.71,0,0,1-2.66-.58A.45.45,0,0,1,23.35,31.86Z" style="fill:#79c6a1"/></svg>