<svg id="a4d25f85-8344-42cd-b61f-2f984e2d76a2" data-name="Calque 1" xmlns="http://www.w3.org/2000/svg" viewBox="0 0 54.18 54.18"><title>icon-cost-reduction</title><path d="M21.18,9.71A11.47,11.47,0,1,0,32.65,21.18,11.47,11.47,0,0,0,21.18,9.71Zm0,20.78a9.31,9.31,0,1,1,9.31-9.31A9.32,9.32,0,0,1,21.18,30.49Z" style="fill:#fff"/><path d="M21.18,12.74a8.44,8.44,0,1,0,8.44,8.44A8.45,8.45,0,0,0,21.18,12.74Zm.66,12.32v.68a.39.39,0,0,1-.39.39H21.1a.39.39,0,0,1-.39-.39v-.56a4.55,4.55,0,0,1-1.81-.39.3.3,0,0,1-.15-.37L18.9,24a.3.3,0,0,1,.42-.18,3.64,3.64,0,0,0,1.53.38c1,0,1.49-.51,1.49-1.14s-.4-1-1.43-1.41c-1.38-.49-2-1.25-2-2.17a2.18,2.18,0,0,1,1.63-2.1v-.71a.39.39,0,0,1,.39-.39h.35a.39.39,0,0,1,.39.39v.56a4,4,0,0,1,1.53.35.3.3,0,0,1,.15.37l-.15.45a.3.3,0,0,1-.4.18,3.61,3.61,0,0,0-1.28-.31c-.82,0-1.28.48-1.28,1s.46.92,1.46,1.3c1.33.51,2,1.17,2,2.31A2.2,2.2,0,0,1,21.84,25.06Z" style="fill:#fff"/><path d="M33.31,26.37a13.21,13.21,0,0,1-1.17,2.13l.18.06a.23.23,0,0,1,.11.29l-.12.35a.23.23,0,0,1-.31.14l-.38-.13a13.28,13.28,0,0,1-1.19,1.36,3.72,3.72,0,0,0,.72.35c1,.39,1.55.9,1.55,1.78a1.69,1.69,0,0,1-1.43,1.67v.51a.32.32,0,0,1-.32.32h-.23a.32.32,0,0,1-.32-.32v-.42a3.51,3.51,0,0,1-1.39-.3.23.23,0,0,1-.11-.29L29,33.5a.23.23,0,0,1,.33-.14,2.8,2.8,0,0,0,1.18.29c.78,0,1.15-.39,1.15-.88s-.3-.79-1.1-1.09a3.23,3.23,0,0,1-.87-.46,13.16,13.16,0,0,1-4.06,2.38,5.6,5.6,0,1,0,7.66-7.24Z" style="fill:#fff"/><path d="M34,24.45a13.11,13.11,0,0,1-.44,1.38,6.18,6.18,0,1,1-8.43,8,13,13,0,0,1-1.4.36A7.62,7.62,0,1,0,34,24.45Z" style="fill:#fff"/><path d="M39.15,35.28a8,8,0,0,1-.7,1.28l.11,0a.14.14,0,0,1,.07.17l-.07.21a.14.14,0,0,1-.19.08L38.14,37a8,8,0,0,1-.71.82,2.24,2.24,0,0,0,.43.21c.62.24.93.54.93,1.07a1,1,0,0,1-.86,1v.3a.19.19,0,0,1-.19.19H37.6a.19.19,0,0,1-.19-.19v-.25a2.11,2.11,0,0,1-.84-.18.14.14,0,0,1-.07-.17l.07-.21a.14.14,0,0,1,.2-.08,1.69,1.69,0,0,0,.71.18c.47,0,.69-.24.69-.53s-.18-.48-.66-.65A2,2,0,0,1,37,38.2a7.92,7.92,0,0,1-2.45,1.43,3.37,3.37,0,1,0,4.61-4.36Z" style="fill:#fff"/><path d="M39.54,34.13a7.89,7.89,0,0,1-.27.83,3.72,3.72,0,1,1-5.07,4.79,7.85,7.85,0,0,1-.84.22,4.59,4.59,0,1,0,6.18-5.84Z" style="fill:#fff"/></svg>