<svg id="6f93dbe9-6080-4c66-8f90-327cc04d8e22" data-name="Calque 1" xmlns="http://www.w3.org/2000/svg" viewBox="0 0 54.18 54.18"><title>icon-light</title><rect x="26.51" y="5.71" width="2.24" height="3.59" rx="1" ry="1" style="fill:#79c6a1"/><rect x="18.43" y="7.49" width="2.24" height="3.63" rx="1" ry="1" transform="translate(-1.83 12.74) rotate(-34.6)" style="fill:#79c6a1"/><rect x="33.9" y="8.18" width="3.63" height="2.24" rx="1" ry="1" transform="translate(7.78 33.42) rotate(-55.4)" style="fill:#79c6a1"/><rect x="12.47" y="12.55" width="2.24" height="3.63" rx="1" ry="1" transform="translate(-5.92 17.62) rotate(-56.06)" style="fill:#79c6a1"/><rect x="39.86" y="13.25" width="3.63" height="2.24" rx="1" ry="1" transform="translate(-0.92 25.72) rotate(-33.94)" style="fill:#79c6a1"/><path d="M26.82,35h6.74c1.32-4.38,5-6.61,5-11.35A10.76,10.76,0,0,0,27.63,13h0A10.76,10.76,0,0,0,16.72,23.6c0,5.79,5.45,7.83,5.45,14.61v2.05a3.41,3.41,0,0,0,1,2.44l2,2a3.42,3.42,0,0,0,4.84,0l2-2a3.43,3.43,0,0,0,.7-1H29.43a1.12,1.12,0,0,1,0-2.24h3.66V38.21c0-.35,0-.69.05-1H26.82a1.12,1.12,0,1,1,0-2.24Z" style="fill:#fff"/></svg>