<svg id="6d288569-b12f-452d-83c1-5c043384eff9" data-name="Calque 1" xmlns="http://www.w3.org/2000/svg" viewBox="0 0 54.18 54.18"><title>icon-api</title><path d="M45.72,13.28H36.37c-7.6,0-9.35,3.18-9.35,3.18v24.3s1.75-3.18,9.35-3.18h9.35Z" style="fill:#79c6a1"/><path d="M8.33,13.28h9.35c7.6,0,9.35,3.18,9.35,3.18v24.3s-1.75-3.18-9.35-3.18H8.33Z" style="fill:#fff"/><path d="M40.65,23.33a.53.53,0,0,0,.37-.9l-1.78-1.78L41,18.86a.53.53,0,0,0-.75-.75l-2.53,2.53,2.53,2.53A.53.53,0,0,0,40.65,23.33Z" style="fill:#fff"/><path d="M33.1,23.33h3.77a.53.53,0,1,0,0-1.06H33.1a.53.53,0,1,0,0,1.06Z" style="fill:#fff"/></svg>