<svg id="6757f264-d4cf-474d-8c58-26afdd7c31f0" data-name="Calque 1" xmlns="http://www.w3.org/2000/svg" viewBox="0 0 54.18 54.18"><title>icon-server</title><path d="M41.71,34.2H12.47a1.61,1.61,0,0,0-1.6,1.6v5.48a1.61,1.61,0,0,0,1.6,1.6H41.71a1.61,1.61,0,0,0,1.6-1.6V35.8A1.61,1.61,0,0,0,41.71,34.2Zm-7.66,4.34a1,1,0,0,1-1,1H14.67a1,1,0,0,1-1-1h0a1,1,0,0,1,1-1H33.09a1,1,0,0,1,1,1Zm4.82,1.61a1.61,1.61,0,1,1,1.61-1.61A1.61,1.61,0,0,1,38.87,40.15Z" style="fill:#fff"/><path d="M24.14,37.58h9a1,1,0,0,1,1,1h0a1,1,0,0,1-1,1h-9Z" style="fill:#79c6a1"/><path d="M41.71,23.17H12.47a1.61,1.61,0,0,0-1.6,1.6v5.48a1.61,1.61,0,0,0,1.6,1.6H41.71a1.61,1.61,0,0,0,1.6-1.6V24.77A1.61,1.61,0,0,0,41.71,23.17Zm-8.62,5.31H14.67a1,1,0,0,1,0-1.93H33.09a1,1,0,1,1,0,1.93Zm5.78.64a1.61,1.61,0,1,1,1.61-1.61A1.61,1.61,0,0,1,38.87,29.12Z" style="fill:#fff"/><path d="M21.14,26.55h12a1,1,0,0,1,1,1h0a1,1,0,0,1-1,1h-12Z" style="fill:#79c6a1"/><path d="M41.71,12.14H12.47a1.61,1.61,0,0,0-1.6,1.6v5.48a1.61,1.61,0,0,0,1.6,1.6H41.71a1.61,1.61,0,0,0,1.6-1.6V13.74A1.61,1.61,0,0,0,41.71,12.14Zm-8.62,5.31H14.67a1,1,0,0,1,0-1.93H33.09a1,1,0,1,1,0,1.93Zm5.78.64a1.61,1.61,0,1,1,1.61-1.61A1.61,1.61,0,0,1,38.87,18.09Z" style="fill:#fff"/><path d="M29.14,15.51h4a1,1,0,0,1,1,1h0a1,1,0,0,1-1,1h-4Z" style="fill:#79c6a1"/></svg>