<svg id="082c5430-c42a-41f7-ab96-2899c325ec0c" data-name="Calque 1" xmlns="http://www.w3.org/2000/svg" viewBox="0 0 54.18 54.18"><title>icon-sheet</title><path d="M38.49,45H15.69A2.19,2.19,0,0,1,13.5,42.8V19.71L23.83,9.19H38.49a2.19,2.19,0,0,1,2.19,2.19V42.8A2.19,2.19,0,0,1,38.49,45Z" style="fill:#fff"/><path d="M21.7,19.59a2.19,2.19,0,0,0,2.19-2.19V9.19L13.5,19.59Z" style="fill:#79c6a1"/><rect x="26.55" y="14.76" width="9.76" height="2.19" rx="1" ry="1" style="fill:#0b272f"/><rect x="18.47" y="25.12" width="17.84" height="2.19" rx="1" ry="1" style="fill:#79c6a1"/><rect x="18.47" y="29.87" width="17.84" height="2.19" rx="1" ry="1" style="fill:#79c6a1"/><rect x="18.47" y="34.62" width="17.84" height="2.19" rx="1" ry="1" style="fill:#79c6a1"/></svg>