<svg id="0e832e94-b53a-4429-890b-7bccebc1c0db" data-name="Calque 1" xmlns="http://www.w3.org/2000/svg" viewBox="0 0 54.18 54.18"><title>icon-catalog research</title><circle cx="27.09" cy="27.09" r="4.59" style="fill:#79c6a1"/><path d="M27.09,39.35A12.26,12.26,0,1,1,39.35,27.09,12.27,12.27,0,0,1,27.09,39.35Zm0-21.52a9.26,9.26,0,1,0,9.26,9.26A9.27,9.27,0,0,0,27.09,17.83Z" style="fill:#fff"/><path d="M27.09,44.53A17.44,17.44,0,1,1,44.53,27.09,17.46,17.46,0,0,1,27.09,44.53Zm0-33.87A16.44,16.44,0,1,0,43.53,27.09,16.46,16.46,0,0,0,27.09,10.65Z" style="fill:#fff"/></svg>