<svg id="15e53419-1689-4f0e-952b-34ec529e9570" data-name="Calque 1" xmlns="http://www.w3.org/2000/svg" viewBox="0 0 54.18 54.18"><title>icon-long-term_1</title><path d="M14.08,25A1.34,1.34,0,0,1,13,24.45a3.55,3.55,0,0,1,.8-5,1.34,1.34,0,0,1,1.57,2.18.86.86,0,0,0-.2,1.21A1.34,1.34,0,0,1,14.08,25Z" style="fill:#79c6a1"/><path d="M21.21,22.59a1.34,1.34,0,0,1-.79-2.43L27.56,15a3,3,0,0,0-3.46-4.79l-7.57,5.46A1.34,1.34,0,0,1,15,13.49L22.53,8a5.64,5.64,0,1,1,6.6,9.15L22,22.33A1.33,1.33,0,0,1,21.21,22.59Z" style="fill:#79c6a1"/><path d="M15.88,25.92A3.55,3.55,0,0,1,13,24.45a1.34,1.34,0,1,1,2.18-1.57.87.87,0,0,0,1.21.2L23.44,18A1.34,1.34,0,1,1,25,20.15l-7.07,5.1A3.53,3.53,0,0,1,15.88,25.92Z" style="fill:#79c6a1"/><path d="M44.57,10.39V44.11H15.7V12.27a1.94,1.94,0,0,1,2-1.88Z" style="fill:#fff"/><path d="M15.59,30.24a7.82,7.82,0,0,1-1.25-.1A7.7,7.7,0,0,1,11.07,16.3l11.6-8.36a1.34,1.34,0,1,1,1.57,2.18l-11.6,8.36A5,5,0,0,0,18.5,26.6l9.38-6.76A1.34,1.34,0,0,1,29.45,22l-9.38,6.76A7.64,7.64,0,0,1,15.59,30.24Z" style="fill:#79c6a1"/><path d="M14.58,21.92a1.34,1.34,0,0,1-.79-2.43l8.57-6.18a1.34,1.34,0,0,1,1.57,2.18l-8.57,6.18A1.33,1.33,0,0,1,14.58,21.92Z" style="fill:#79c6a1"/></svg>