<svg id="76a82093-4c8d-4581-a17c-db43f52a2dce" data-name="Calque 1" xmlns="http://www.w3.org/2000/svg" viewBox="0 0 54.18 54.18"><title>icon-tv</title><path d="M27.09,17.62A119.79,119.79,0,0,1,8.36,16.29V37.21a119.79,119.79,0,0,1,18.73-1.33,119.79,119.79,0,0,1,18.73,1.33V16.29A119.79,119.79,0,0,1,27.09,17.62Z" style="fill:#fff"/><path d="M29.38,27.58l-4,2.31a.57.57,0,0,1-.85-.49V24.78a.57.57,0,0,1,.85-.49l4,2.31A.57.57,0,0,1,29.38,27.58Z" style="fill:#0b272f"/><path d="M13.33,16.93c-3.15-.33-5-.64-5-.64V37.21s1.82-.32,5-.64Z" style="fill:#79c6a1"/><path d="M40.85,16.93c3.15-.33,5-.64,5-.64V37.21s-1.82-.32-5-.64Z" style="fill:#79c6a1"/></svg>