<svg id="f1d70ffe-62dd-44f0-b720-92b55df94673" data-name="Calque 1" xmlns="http://www.w3.org/2000/svg" viewBox="0 0 54.18 54.18"><title>icon-nodeum-logo</title><path d="M15.5,38h0a1.51,1.51,0,0,1,0-2.09l7.81-7.81a1.41,1.41,0,0,1,2,0h0a1.41,1.41,0,0,1,0,2L17.52,38A1.35,1.35,0,0,1,15.5,38Z" style="fill:#79c6a1"/><path d="M22.59,37.71h0a1.51,1.51,0,0,0,2.09,0L42,20.4a1.41,1.41,0,0,0,0-2h0a1.41,1.41,0,0,0-2,0L22.59,35.7A1.41,1.41,0,0,0,22.59,37.71Z" style="fill:#79c6a1"/><path d="M24.52,42.46h0a1.51,1.51,0,0,0,2.09,0l4.19-4.19a1.41,1.41,0,0,0,0-2h0a1.41,1.41,0,0,0-2,0L24.6,40.45A1.49,1.49,0,0,0,24.52,42.46Z" style="fill:#79c6a1"/><path d="M19.53,40.85h0a1.51,1.51,0,0,1,0-2.09h0a1.41,1.41,0,0,1,2,0h0a1.41,1.41,0,0,1,0,2h0A1.49,1.49,0,0,1,19.53,40.85Z" style="fill:#79c6a1"/><path d="M32.49,41.41h0a1.51,1.51,0,0,1,0-2.09l8-8a1.41,1.41,0,0,1,2,0h0a1.41,1.41,0,0,1,0,2l-8,8A1.49,1.49,0,0,1,32.49,41.41Z" style="fill:#79c6a1"/><path d="M28.38,25.15h0a1.51,1.51,0,0,0-2.09,0h0a1.41,1.41,0,0,0,0,2h0a1.41,1.41,0,0,0,2,0h0A1.35,1.35,0,0,0,28.38,25.15Z" style="fill:#fff"/><path d="M39.65,13.88h0a1.51,1.51,0,0,0-2.09,0L29.35,22a1.41,1.41,0,0,0,0,2h0a1.41,1.41,0,0,0,2,0l8.21-8.21A1.26,1.26,0,0,0,39.65,13.88Z" style="fill:#fff"/><path d="M31.85,35.3h0a1.51,1.51,0,0,1,0-2.09h0a1.41,1.41,0,0,1,2,0h0a1.41,1.41,0,0,1,0,2h0A1.35,1.35,0,0,1,31.85,35.3Z" style="fill:#fff"/><path d="M43.19,23.95h0a1.51,1.51,0,0,0-2.09,0l-6.28,6.28a1.41,1.41,0,0,0,0,2h0a1.41,1.41,0,0,0,2,0L43.11,26A1.35,1.35,0,0,0,43.19,23.95Z" style="fill:#fff"/><path d="M15.83,30.95h0a1.51,1.51,0,0,1,0-2.09L33.13,11.55a1.41,1.41,0,0,1,2,0h0a1.41,1.41,0,0,1,0,2L17.84,30.95A1.41,1.41,0,0,1,15.83,30.95Z" style="fill:#fff"/><path d="M22.43,17.51h0a1.51,1.51,0,0,0-2.09,0h0a1.41,1.41,0,0,0,0,2h0a1.41,1.41,0,0,0,2,0h0A1.49,1.49,0,0,0,22.43,17.51Z" style="fill:#fff"/><path d="M11,28.94h0a1.51,1.51,0,0,1,0-2.09l6.28-6.28a1.41,1.41,0,0,1,2,0h0a1.41,1.41,0,0,1,0,2L13,28.86A1.35,1.35,0,0,1,11,28.94Z" style="fill:#fff"/><path d="M29.59,10.26h0a1.51,1.51,0,0,1,0,2.09l-4.19,4.19a1.41,1.41,0,0,1-2,0h0a1.41,1.41,0,0,1,0-2l4.19-4.19A1.34,1.34,0,0,1,29.59,10.26Z" style="fill:#fff"/><path d="M12.69,34h0a1.51,1.51,0,0,0,2.09,0h0a1.41,1.41,0,0,0,0-2h0a1.41,1.41,0,0,0-2,0h0A1.34,1.34,0,0,0,12.69,34Z" style="fill:#fff"/><path d="M12.12,21h0a1.51,1.51,0,0,0,2.09,0l8-8a1.41,1.41,0,0,0,0-2h0a1.41,1.41,0,0,0-2,0l-8,8A1.35,1.35,0,0,0,12.12,21Z" style="fill:#fff"/></svg>