<svg id="381633df-d2ae-468b-8afd-82af63317080" data-name="Calque 1" xmlns="http://www.w3.org/2000/svg" viewBox="0 0 54.18 54.18"><title>icon-long-term</title><path d="M27,15.23A11.87,11.87,0,1,0,38.84,27.1,11.88,11.88,0,0,0,27,15.23Zm4.67,16.35-.19.19a1.17,1.17,0,0,1-1.64,0l-2.93-2.93a1.17,1.17,0,0,1,0-1.64l.1-.1a1.3,1.3,0,0,1-1.3-1.3V19.63a1.3,1.3,0,0,1,2.6,0V25.8a1.29,1.29,0,0,1-.35.87,1.15,1.15,0,0,1,.79.33l2.93,2.93A1.17,1.17,0,0,1,31.64,31.57Z" style="fill:#fff"/><path d="M33.33,43.22a18.24,18.24,0,0,0,2.08-1,17.45,17.45,0,0,0,8.35-19.6,17.78,17.78,0,0,0-.63-1.93,17.36,17.36,0,0,0-33.5,7,1.8,1.8,0,0,0,3.59-.14A13.76,13.76,0,0,1,39.78,22a14.42,14.42,0,0,1,.51,1.54A13.82,13.82,0,0,1,33.68,39.1a14.71,14.71,0,0,1-1.67.78A13.76,13.76,0,0,1,16.49,36a1.8,1.8,0,0,0-2.74,2.33A17.35,17.35,0,0,0,33.33,43.22Z" style="fill:#79c6a1"/><path d="M13.63,39.36l4.23-2.64a1.71,1.71,0,0,0-.52-3.13l-3.44-.79a1.71,1.71,0,0,0-2.06,1.28l-.8,3.44A1.71,1.71,0,0,0,13.63,39.36Z" style="fill:#79c6a1"/></svg>