<svg id="1e6a299f-1783-4375-a5a5-63d3b93a1c62" data-name="Calque 1" xmlns="http://www.w3.org/2000/svg" viewBox="0 0 54.18 54.18"><title>icon-mil</title><path d="M8.36,38.82a2,2,0,0,0,2,2H43.82a2,2,0,0,0,2-2L27.09,26Z" style="fill:#fff"/><path d="M43.82,13.45H10.36a2,2,0,0,0-2,2l14.38,9.87,2.65-1.82,1.7-1.16,1.7,1.16,2.65,1.82,14.38-9.87A2,2,0,0,0,43.82,13.45Z" style="fill:#fff"/><polygon points="34.09 27.14 45.82 35.18 45.82 19.09 34.09 27.14" style="fill:#fff"/><polygon points="8.36 19.09 8.36 35.18 20.09 27.14 8.36 19.09" style="fill:#fff"/><path d="M10.36,13.45a2,2,0,0,0-2,2L27.09,28.3,45.82,15.45a2,2,0,0,0-2-2Z" style="fill:#79c6a1"/></svg>