<?xml version="1.0" encoding="utf-8"?>
<!-- Generator: Adobe Illustrator 20.0.0, SVG Export Plug-In . SVG Version: 6.00 Build 0)  -->
<svg version="1.1" id="Calque_1" xmlns="http://www.w3.org/2000/svg" xmlns:xlink="http://www.w3.org/1999/xlink" x="0px" y="0px"
	 viewBox="0 0 245 43" style="enable-background:new 0 0 245 43;" xml:space="preserve">
<style type="text/css">
	.st0{fill:#F9EE7A;}
	.st1{fill:#FFFFFF;}
</style>
<g>
	<g>
		<path class="st0" d="M40.9,11L40.9,11c-0.7-0.7-2-0.7-2.7,0l0,0c-0.7,0.7-0.7,1.9,0,2.6l0,0c0.7,0.7,1.9,0.7,2.6,0l0,0
			C41.7,13,41.7,11.8,40.9,11z"/>
	</g>
	<g>
		<g>
			<path class="st0" d="M6.4,36.7L6.4,36.7c-0.7-0.7-0.7-2,0-2.7l10.2-10.2c0.7-0.7,1.9-0.7,2.6,0l0,0c0.7,0.7,0.7,1.9,0,2.6L9,36.6
				C8.3,37.5,7.2,37.5,6.4,36.7z"/>
		</g>
		<g>
			<path class="st0" d="M15.7,36.3L15.7,36.3c0.7,0.7,2,0.7,2.7,0l22.5-22.5c0.7-0.7,0.7-1.9,0-2.6l0,0c-0.7-0.7-1.9-0.7-2.6,0
				L15.7,33.7C14.9,34.3,14.9,35.6,15.7,36.3z"/>
		</g>
		<g>
			<path class="st0" d="M18.2,42.5L18.2,42.5c0.7,0.7,2,0.7,2.7,0l5.5-5.5c0.7-0.7,0.7-1.9,0-2.6l0,0c-0.7-0.7-1.9-0.7-2.6,0
				l-5.5,5.5C17.5,40.6,17.5,41.8,18.2,42.5z"/>
		</g>
		<g>
			<path class="st0" d="M11.7,40.4L11.7,40.4c-0.7-0.7-0.7-2,0-2.7l0,0c0.7-0.7,1.9-0.7,2.6,0l0,0c0.7,0.7,0.7,1.9,0,2.6l0,0
				C13.6,41,12.4,41,11.7,40.4z"/>
		</g>
		<g>
			<path class="st0" d="M28.6,41.1L28.6,41.1c-0.7-0.7-0.7-2,0-2.7L39,27.9c0.7-0.7,1.9-0.7,2.6,0l0,0c0.7,0.7,0.7,1.9,0,2.6
				L31.2,41C30.4,41.8,29.3,41.8,28.6,41.1z"/>
		</g>
	</g>
</g>
<g>
	<path class="st1" d="M119.5,8.1c-4.3,0-7.8,1.2-10.3,3.6c-2.6,2.5-3.8,5.7-3.8,10c0,4.2,1.2,7.6,3.7,10.2c2.5,2.5,5.9,3.7,10.3,3.7
		c4.4,0,7.9-1.2,10.3-3.7c2.5-2.4,3.8-5.9,3.8-10.2c0-4.2-1.3-7.6-3.8-10C127.3,9.3,123.9,8.1,119.5,8.1z M131,21.6
		c0,3.5-1,6.2-3,8.2c-1.8,1.8-4.3,2.6-8.5,2.6c-4,0-6.5-0.8-8.4-2.6c-2-2-3-4.8-3-8.2c0-3.4,1-6.1,3-8c2-1.9,4.7-2.3,8.3-2.3
		c3,0,6.4,0.3,8.5,2.2C129.9,15.4,131,18.2,131,21.6z"/>
	<path class="st1" d="M147.8,8h-9.4c-0.7,0-1.3,0.6-1.3,1.3V34c0,0.7,0.6,1.3,1.3,1.3h8.1c4.5,0,8-1.1,10.6-3.4
		c2.8-2.4,4.2-5.9,4.2-10.2c0-4.3-1.1-7.6-3.3-10C155.6,9.2,152.2,8,147.8,8z M158.5,21.6c0,3.5-1,6.3-3.1,8.1
		c-2.2,1.9-5.1,2.8-8.8,2.8h-6.7V10.7h8c3.5,0,6.2,1,8,2.9C157.6,15.4,158.5,18.1,158.5,21.6z"/>
	<path class="st1" d="M184.3,32.7h-16.6V22.4h12.8c0.7,0,1.3-0.6,1.3-1.3s-0.6-1.3-1.3-1.3h-12.8v-9.1h9.6c0.7,0,1.3-0.6,1.3-1.3
		c0-0.7-0.6-1.3-1.3-1.3h-11.1c-0.7,0-1.3,0.6-1.3,1.3V34c0,0.7,0.6,1.3,1.3,1.3h18c0.7,0,1.3-0.6,1.3-1.2c0.1-0.4,0-0.7-0.2-1
		C185.1,32.8,184.7,32.7,184.3,32.7z"/>
	<path class="st1" d="M100.6,4.7h-0.1c-0.7,0-1.3,0.6-1.3,1.3l0,24.7c-2.2-2.8-4.9-6.2-8.4-10.4c-4.1-5.1-7.2-8.9-9.4-11.7
		c-0.2-0.4-0.7-0.6-1.1-0.6h-0.6c-0.7,0-1.3,0.6-1.3,1.3v24.6c0,0.7,0.6,1.3,1.3,1.3h0.1c0.7,0,1.3-0.6,1.3-1.3l0-21.7l17.7,22.2
		c0.2,0.4,0.7,0.5,1,0.5h0.7c0.3,0,0.6-0.1,0.9-0.3l0.1-0.1c0.2-0.2,0.4-0.6,0.4-1V6C102,5.3,101.3,4.7,100.6,4.7z"/>
	<path class="st1" d="M244.4,9.1c0,0,0-0.1-0.1-0.1c-0.1-0.2-0.1-0.4-0.4-0.6l0,0c-0.2-0.2-0.6-0.4-1-0.4h-0.7c-0.5,0-1,0.3-1.2,0.7
		L230,31.3c0,0,0,0,0,0L218.8,8.8c-0.2-0.5-0.6-0.8-1.2-0.8h-0.7c-0.3,0-0.6,0.1-0.9,0.3l-0.1,0.1c-0.2,0.2-0.4,0.6-0.4,1v24.9
		c0,0.7,0.6,1.3,1.3,1.3h0.1c0.7,0,1.3-0.6,1.3-1.3l0-20.3l10.2,20.6c0.2,0.5,0.6,0.8,1.2,0.8h0.5c0.5,0,1-0.3,1.2-0.7l10.3-20.6
		v20.2c0,0.7,0.6,1.3,1.3,1.3h0.1c0.7,0,1.3-0.6,1.3-1.3V9.2L244.4,9.1z"/>
	<path class="st1" d="M210.9,8.4c-0.2-0.3-0.6-0.4-1-0.4h-0.1c-0.7,0-1.3,0.6-1.3,1.3V25c0,5.2-2.6,7.4-8.7,7.4s-8.7-2.3-8.7-7.6
		V9.3c0-0.7-0.6-1.3-1.3-1.3h-0.1c-0.7,0-1.3,0.6-1.3,1.3v15.5c0,3.7,1,6.5,3,8.2c1.9,1.6,4.6,2.4,8.5,2.4c3.7,0,6.6-0.8,8.4-2.4
		c2-1.8,3-4.5,3-8.1l0-15.5C211.2,9.1,211.1,8.7,210.9,8.4z"/>
</g>
<g>
	<g>
		<path class="st1" d="M23.2,19.9L23.2,19.9c-0.7-0.7-2-0.7-2.7,0l0,0c-0.7,0.7-0.7,1.9,0,2.6l0,0c0.7,0.7,1.9,0.7,2.6,0l0,0
			C23.9,21.8,23.9,20.7,23.2,19.9z"/>
	</g>
	<g>
		<path class="st1" d="M37.9,5.3L37.9,5.3c-0.7-0.7-2-0.7-2.7,0L24.5,15.8c-0.7,0.7-0.7,1.9,0,2.6l0,0c0.7,0.7,1.9,0.7,2.6,0
			L37.8,7.8C38.6,7.1,38.6,6,37.9,5.3z"/>
	</g>
	<g>
		<path class="st1" d="M27.7,33.2L27.7,33.2c-0.7-0.7-0.7-2,0-2.7l0,0c0.7-0.7,1.9-0.7,2.6,0l0,0c0.7,0.7,0.7,1.9,0,2.6l0,0
			C29.6,33.9,28.4,33.9,27.7,33.2z"/>
	</g>
	<g>
		<path class="st1" d="M42.5,18.4L42.5,18.4c-0.7-0.7-2-0.7-2.7,0l-8.2,8.2c-0.7,0.7-0.7,1.9,0,2.6l0,0c0.7,0.7,1.9,0.7,2.6,0
			l8.2-8.2C43.2,20.3,43.2,19.1,42.5,18.4z"/>
	</g>
	<g>
		<path class="st1" d="M6.8,27.5L6.8,27.5c-0.7-0.7-0.7-2,0-2.7L29.4,2.2c0.7-0.7,1.9-0.7,2.6,0l0,0c0.7,0.7,0.7,1.9,0,2.6L9.5,27.5
			C8.7,28.2,7.6,28.2,6.8,27.5z"/>
	</g>
	<g>
		<path class="st1" d="M15.4,10L15.4,10c-0.7-0.7-2-0.7-2.7,0l0,0c-0.7,0.7-0.7,1.9,0,2.6l0,0c0.7,0.7,1.9,0.7,2.6,0l0,0
			C16.1,12,16.1,10.7,15.4,10z"/>
	</g>
	<g>
		<path class="st1" d="M0.6,24.9L0.6,24.9c-0.7-0.7-0.7-2,0-2.7L8.7,14c0.7-0.7,1.9-0.7,2.6,0l0,0c0.7,0.7,0.7,1.9,0,2.6l-8.2,8.2
			C2.4,25.6,1.3,25.6,0.6,24.9z"/>
	</g>
	<g>
		<path class="st1" d="M24.8,0.5L24.8,0.5c0.7,0.7,0.7,2,0,2.7l-5.5,5.5c-0.7,0.7-1.9,0.7-2.6,0l0,0C16,8,16,6.8,16.7,6.1l5.5-5.5
			C22.8-0.2,24-0.2,24.8,0.5z"/>
	</g>
	<g>
		<path class="st1" d="M32,2.2L32,2.2c0.7,0.7,0.7,2,0,2.7l0,0c-0.7,0.7-1.9,0.7-2.6,0l0,0c-0.7-0.7-0.7-1.9,0-2.6l0,0
			C30.1,1.5,31.3,1.5,32,2.2z"/>
	</g>
	<g>
		<path class="st1" d="M2.8,31.5L2.8,31.5c0.7,0.7,2,0.7,2.7,0l0,0c0.7-0.7,0.7-1.9,0-2.6l0,0c-0.7-0.7-1.9-0.7-2.6,0l0,0
			C2,29.5,2,30.7,2.8,31.5z"/>
	</g>
	<g>
		<path class="st1" d="M2,14.5L2,14.5c0.7,0.7,2,0.7,2.7,0L15.2,4c0.7-0.7,0.7-1.9,0-2.6l0,0c-0.7-0.7-1.9-0.7-2.6,0L2.1,11.9
			C1.3,12.6,1.3,13.9,2,14.5z"/>
	</g>
</g>
</svg>
