<svg id="Calque_1" data-name="Calque 1" xmlns="http://www.w3.org/2000/svg" viewBox="0 0 54.18 54.18"><defs><style>.cls-1{fill:#a5b3bb;}.cls-2{fill:#fff;}.cls-3{fill:#00272a;}</style></defs><title>icon-settings</title><path class="cls-1" d="M33.45,15.77l-1.88.63a1.09,1.09,0,0,1-1.17-.32l-.73-.83a1.09,1.09,0,0,1-.15-1.2l.88-1.77a1.54,1.54,0,0,0-.69-2.05L27.3,9a1.54,1.54,0,0,0-2.05.69l-.88,1.77a1.09,1.09,0,0,1-1,.6L22.21,12a1.09,1.09,0,0,1-1-.74L20.61,9.4a1.54,1.54,0,0,0-1.94-1l-2.55.86a1.54,1.54,0,0,0-1,1.94l.63,1.88a1.09,1.09,0,0,1-.32,1.17l-.83.73a1.09,1.09,0,0,1-1.2.15l-1.77-.88A1.54,1.54,0,0,0,9.61,15L8.42,17.39a1.54,1.54,0,0,0,.69,2.05l1.77.88a1.09,1.09,0,0,1,.6,1l-.07,1.1a1.09,1.09,0,0,1-.74,1l-1.88.63a1.54,1.54,0,0,0-1,1.94l.86,2.55a1.54,1.54,0,0,0,1.94,1l1.88-.63a1.09,1.09,0,0,1,1.17.32l.73.83a1.09,1.09,0,0,1,.15,1.2L13.69,33a1.54,1.54,0,0,0,.69,2.05l2.41,1.19a1.54,1.54,0,0,0,2.05-.69l.88-1.77a1.09,1.09,0,0,1,1-.6l1.1.07a1.09,1.09,0,0,1,1,.74l.63,1.88a1.54,1.54,0,0,0,1.94,1L28,36a1.54,1.54,0,0,0,1-1.94l-.63-1.88A1.09,1.09,0,0,1,28.61,31l.83-.73a1.09,1.09,0,0,1,1.2-.15l1.77.88a1.54,1.54,0,0,0,2.05-.69l1.19-2.41A1.54,1.54,0,0,0,35,25.85L33.2,25a1.09,1.09,0,0,1-.6-1l.07-1.1a1.09,1.09,0,0,1,.74-1l1.88-.63a1.54,1.54,0,0,0,1-1.94l-.86-2.55A1.54,1.54,0,0,0,33.45,15.77Z"/><circle class="cls-2" cx="22.04" cy="22.65" r="4.34"/><path class="cls-3" d="M44.18,30.86l-1.41.32a.8.8,0,0,1-.83-.32l-.46-.66a.8.8,0,0,1,0-.88l.77-1.22a1.12,1.12,0,0,0-.35-1.54l-1.66-1a1.12,1.12,0,0,0-1.54.35l-.77,1.22a.8.8,0,0,1-.81.36l-.8-.14a.8.8,0,0,1-.64-.61l-.32-1.41A1.12,1.12,0,0,0,34,24.42l-1.91.43a1.12,1.12,0,0,0-.85,1.34l.32,1.41a.8.8,0,0,1-.32.83l-.66.46a.8.8,0,0,1-.88,0l-1.22-.77a1.12,1.12,0,0,0-1.54.35l-1,1.66a1.12,1.12,0,0,0,.35,1.54l1.22.77a.8.8,0,0,1,.36.81l-.14.8a.8.8,0,0,1-.61.64L25.65,35a1.12,1.12,0,0,0-.85,1.34l.43,1.91a1.12,1.12,0,0,0,1.34.85L28,38.81a.8.8,0,0,1,.83.32l.46.66a.8.8,0,0,1,0,.88l-.77,1.22a1.12,1.12,0,0,0,.35,1.54l1.66,1a1.12,1.12,0,0,0,1.54-.35l.77-1.22a.8.8,0,0,1,.81-.36l.8.14a.8.8,0,0,1,.64.61l.32,1.41a1.12,1.12,0,0,0,1.34.85l1.91-.43a1.12,1.12,0,0,0,.85-1.34l-.32-1.41a.8.8,0,0,1,.32-.83l.66-.46a.8.8,0,0,1,.88,0l1.22.77a1.12,1.12,0,0,0,1.54-.35l1-1.66a1.12,1.12,0,0,0-.35-1.54l-1.22-.77a.8.8,0,0,1-.36-.81l.14-.8a.8.8,0,0,1,.61-.64L45.1,35a1.12,1.12,0,0,0,.85-1.34l-.43-1.91A1.12,1.12,0,0,0,44.18,30.86Z"/><circle class="cls-2" cx="35.38" cy="34.99" r="3.17" transform="translate(-3.09 66.56) rotate(-84.06)"/></svg>