<svg id="ed1ed77d-57c7-4826-ae07-12a64d506bec" data-name="Calque 1" xmlns="http://www.w3.org/2000/svg" viewBox="0 0 54.18 54.18"><title>icon-light</title><rect x="26.63" y="7.84" width="2" height="3.21" rx="1" ry="1" style="fill:#a5b3bb"/><rect x="19.41" y="9.43" width="2" height="3.25" rx="1" ry="1" transform="translate(-2.67 13.54) rotate(-34.6)" style="fill:#a5b3bb"/><rect x="33.23" y="10.05" width="3.25" height="2" rx="1" ry="1" transform="translate(5.97 33.47) rotate(-55.4)" style="fill:#a5b3bb"/><rect x="14.09" y="13.95" width="2" height="3.25" rx="1" ry="1" transform="translate(-6.26 19.4) rotate(-56.06)" style="fill:#a5b3bb"/><rect x="38.56" y="14.58" width="3.25" height="2" rx="1" ry="1" transform="translate(-1.85 25.09) rotate(-33.94)" style="fill:#a5b3bb"/><path d="M28.24,39a1,1,0,0,1,1-1H32.5V36.88c0-.32,0-.62,0-.91H26.91a1,1,0,1,1,0-2h6c1.18-3.91,4.45-5.91,4.45-10.14a9.62,9.62,0,0,0-9.75-9.48h0a9.62,9.62,0,0,0-9.75,9.48c0,5.17,4.87,7,4.87,13.05v1.83a3,3,0,0,0,.92,2.18l1.79,1.79a3.06,3.06,0,0,0,4.32,0l1.79-1.79a3.06,3.06,0,0,0,.63-.9h-3A1,1,0,0,1,28.24,39Z" style="fill:#00272a"/><path d="M25.91,35a1,1,0,0,0,1,1h5.64a9.77,9.77,0,0,1,.38-2h-6A1,1,0,0,0,25.91,35Z" style="fill:#fff"/><path d="M32.5,38H29.24a1,1,0,0,0,0,2h3a3,3,0,0,0,.29-1.28Z" style="fill:#fff"/></svg>