<svg id="Calque_1" data-name="Calque 1" xmlns="http://www.w3.org/2000/svg" viewBox="0 0 54.18 54.18"><defs><style>.cls-1{fill:#00272a;}.cls-2{fill:#a5b3bb;}</style></defs><title>icon-adn</title><rect class="cls-1" x="22.59" y="27.65" width="0.97" height="6.84" transform="translate(-15.21 25.41) rotate(-45)"/><rect class="cls-1" x="24.3" y="23.94" width="0.97" height="10.5" transform="translate(-13.38 26.07) rotate(-45)"/><rect class="cls-2" x="17.84" y="32.18" width="0.97" height="7.27" transform="translate(-19.96 23.45) rotate(-45)"/><rect class="cls-2" x="16.12" y="32.45" width="0.97" height="10.5" transform="translate(-21.79 22.79) rotate(-45)"/><rect class="cls-1" x="26.04" y="21.22" width="0.97" height="12.21" transform="translate(-11.55 26.76) rotate(-45)"/><rect class="cls-2" x="14.39" y="33.46" width="0.97" height="12.21" transform="translate(-23.62 22.1) rotate(-45)"/><rect class="cls-1" x="31.6" y="18.63" width="0.97" height="6.84" transform="translate(-6.19 29.15) rotate(-45)"/><rect class="cls-1" x="29.72" y="18.52" width="0.97" height="10.5" transform="translate(-7.96 28.32) rotate(-45)"/><rect class="cls-2" x="36.35" y="13.67" width="0.97" height="7.27" transform="translate(-1.45 31.11) rotate(-45)"/><rect class="cls-2" x="38.23" y="10.34" width="0.97" height="10.5" transform="translate(0.32 31.94) rotate(-45)"/><rect class="cls-1" x="27.86" y="19.4" width="0.97" height="12.21" transform="translate(-9.73 27.51) rotate(-45)"/><rect class="cls-2" x="40.09" y="7.75" width="0.97" height="12.21" transform="translate(2.09 32.75) rotate(-45)"/><path class="cls-2" d="M38.27,8.47a1.15,1.15,0,0,0-1.62-1.62l-.09.09h0l-.35.35-.26.28-.18.18h0a10.25,10.25,0,0,0-2.62,5.75,24.79,24.79,0,0,0,.27,6.23c.52,4,1,7.45-2.13,10.53h0a8.36,8.36,0,0,1-6.39,2.49,32.8,32.8,0,0,1-4.14-.36A34.87,34.87,0,0,0,16.31,32a14.3,14.3,0,0,0-1.79.11A10.31,10.31,0,0,0,8.3,35.18l-.35.35H8l-.81.81A1.15,1.15,0,0,0,8.76,38l.89-.89h0l.27-.27a8.36,8.36,0,0,1,6.39-2.49,32.8,32.8,0,0,1,4.14.36,34.86,34.86,0,0,0,4.44.38A14.31,14.31,0,0,0,26.68,35a10.26,10.26,0,0,0,5.86-2.72h0l.35-.35h0l.35-.35h0A10.26,10.26,0,0,0,36,25.67a24.79,24.79,0,0,0-.27-6.23c-.51-4-.95-7.38,2-10.44Z"/><path class="cls-1" d="M47.3,15.88a1.15,1.15,0,0,0-1.62,0l-.09.09h0l-.35.35a8.36,8.36,0,0,1-6.39,2.49,32.8,32.8,0,0,1-4.14-.36,34.86,34.86,0,0,0-4.44-.38,14.31,14.31,0,0,0-1.79.11,10.26,10.26,0,0,0-5.86,2.72h0l-.35.35h0l-.35.35h0a10.26,10.26,0,0,0-2.72,5.86,24.79,24.79,0,0,0,.27,6.23c.52,4,1,7.45-2.13,10.53l-.35.35h0l-.81.81A1.15,1.15,0,0,0,17.79,47l.81-.81h0l.35-.35A10.31,10.31,0,0,0,22,39.62a24.79,24.79,0,0,0-.27-6.23c-.52-4-1-7.45,2.13-10.53h0a8.36,8.36,0,0,1,6.39-2.49,32.8,32.8,0,0,1,4.14.36,34.86,34.86,0,0,0,4.44.38A14.3,14.3,0,0,0,40.64,21a10.25,10.25,0,0,0,5.75-2.62h0l.37-.37.09-.08.35-.35h0l.09-.09A1.15,1.15,0,0,0,47.3,15.88Z"/></svg>