<svg id="Calque_1" data-name="Calque 1" xmlns="http://www.w3.org/2000/svg" viewBox="0 0 54.18 54.18"><defs><style>.cls-1{fill:#a5b3bb;}.cls-2{fill:#fff;}.cls-3{fill:#00272a;}</style></defs><title>icon-database</title><path class="cls-1" d="M27.09,44.73c-6,0-16.18-1.3-16.18-6.19V29H43.27v9.58C43.27,43.43,33.1,44.73,27.09,44.73Z"/><path class="cls-2" d="M41.52,30.71v7.83C41.52,41,35.06,43,27.09,43s-14.43-2-14.43-4.44V30.71H41.52m3.5-3.5H9.16V38.54c0,7.56,14.94,7.94,17.93,7.94S45,46.1,45,38.54V27.21Z"/><path class="cls-3" d="M27.09,33.08c-7.67,0-15.93-1.86-15.93-5.94V17.81H43v9.33C43,31.22,34.76,33.08,27.09,33.08Z"/><path class="cls-2" d="M41.52,19.31v7.83c0,2.45-6.46,4.44-14.43,4.44s-14.43-2-14.43-4.44V19.31H41.52m3-3H9.66V27.14c0,5.49,9.39,7.44,17.43,7.44s17.43-1.95,17.43-7.44V16.31Z"/><path class="cls-3" d="M27.09,21c-7.67,0-15.93-1.86-15.93-5.94s8.26-5.94,15.93-5.94S43,11,43,15.11,34.76,21,27.09,21Z"/><path class="cls-2" d="M27.09,10.67c8,0,14.43,2,14.43,4.44s-6.46,4.44-14.43,4.44-14.43-2-14.43-4.44,6.46-4.44,14.43-4.44m0-3c-8,0-17.43,1.95-17.43,7.44S19,22.55,27.09,22.55s17.43-1.95,17.43-7.44S35.13,7.67,27.09,7.67Z"/></svg>