<svg id="Calque_1" data-name="Calque 1" xmlns="http://www.w3.org/2000/svg" viewBox="0 0 54.18 54.18"><defs><style>.cls-1{fill:#00272a;}.cls-2{fill:#fff;}.cls-3{fill:#a5b3bb;}</style></defs><title>icon-mil</title><rect class="cls-1" x="8.36" y="13.45" width="37.46" height="27.29" rx="2" ry="2"/><path class="cls-1" d="M10.36,42.32a3.5,3.5,0,0,1-3.5-3.5V38L27.09,24.15,47.32,38v.79a3.5,3.5,0,0,1-3.5,3.5Z"/><path class="cls-2" d="M27.09,26,45.82,38.82a2,2,0,0,1-2,2H10.36a2,2,0,0,1-2-2L27.09,26m0-3.64-1.7,1.16L6.66,36.35l-1.3.89v1.58a5,5,0,0,0,5,5H43.82a5,5,0,0,0,5-5V37.24l-1.3-.89L28.79,23.5l-1.7-1.16Z"/><path class="cls-3" d="M6.86,16.24v-.79a3.5,3.5,0,0,1,3.5-3.5H43.82a3.5,3.5,0,0,1,3.5,3.5v.79L27.09,30.12Z"/><path class="cls-2" d="M43.82,13.45a2,2,0,0,1,2,2L27.09,28.3,8.36,15.45a2,2,0,0,1,2-2H43.82m0-3H10.36a5,5,0,0,0-5,5V17l1.3.89L25.39,30.77l1.7,1.16,1.7-1.16L47.52,17.92l1.3-.89V15.45a5,5,0,0,0-5-5Z"/></svg>