<svg id="9558ecb9-5ba3-4f72-9f5a-9f55955f7742" data-name="Calque 1" xmlns="http://www.w3.org/2000/svg" viewBox="0 0 54.18 54.18"><title>icon-user</title><path d="M27.31,32c6.16,0,11.55,2.65,14.56,6.61a18.72,18.72,0,1,0-29.34.29C15.49,34.74,21,32,27.31,32Z" style="fill:#a5b3bb"/><circle cx="27.09" cy="27.09" r="18.73" style="fill:#a5b3bb"/><circle cx="27.08" cy="23.61" r="6.53" style="fill:#fff"/><path d="M27.09,31.88c6.82,0,12.45,3.62,13.36,8.32a18.73,18.73,0,1,0-26.73,0C14.64,35.5,20.27,31.88,27.09,31.88Z" style="fill:none"/><path d="M27.09,31.88c-6.82,0-12.45,3.62-13.36,8.32a18.71,18.71,0,0,0,26.73,0C39.54,35.5,33.91,31.88,27.09,31.88Z" style="fill:#00272a"/><polygon points="29.59 37.84 28.08 34.71 26.08 34.71 24.56 37.84 18.57 30.38 35.58 30.38 29.59 37.84" style="fill:#a5b3bb"/><circle cx="27.08" cy="33.53" r="1.56" style="fill:#013346"/><rect x="25.47" y="31.82" width="3.21" height="3.42" rx="1.6" ry="1.6" transform="translate(54.15 67.05) rotate(-180)" style="fill:#013346"/></svg>