<svg id="4c9512f9-8615-48d3-b8dc-d2dc6f0f547f" data-name="Calque 1" xmlns="http://www.w3.org/2000/svg" viewBox="0 0 54.18 54.18"><title>icon-panes</title><rect x="19.61" y="0.62" width="14.97" height="34.72" rx="1.6" ry="1.6" transform="translate(45.07 -9.11) rotate(90)" style="fill:#a5b3bb"/><rect x="28.16" y="27.39" width="16.23" height="16.35" rx="1.6" ry="1.6" transform="translate(71.84 -0.71) rotate(90)" style="fill:#a5b3bb"/><rect x="9.79" y="27.39" width="16.23" height="16.35" rx="1.6" ry="1.6" transform="translate(53.48 17.66) rotate(90)" style="fill:#a5b3bb"/><path d="M14,38.62a3.75,3.75,0,0,1,7.51,0" style="fill:none;stroke:#013346;stroke-miterlimit:10;stroke-width:2px"/><path d="M14,39.06A3.75,3.75,0,0,1,15.59,36" style="fill:none;stroke:#fff;stroke-miterlimit:10;stroke-width:2px"/><circle cx="17" cy="21.64" r="1.4" style="fill:#fff"/><circle cx="23.43" cy="19.83" r="1.4" style="fill:#fff"/><circle cx="36.31" cy="21.21" r="1.4" style="fill:#fff"/><polyline points="17 21.64 23.43 19.83 29.87 17.02 36.31 21.2" style="fill:none;stroke:#fff;stroke-miterlimit:10"/><circle cx="29.87" cy="17.02" r="1.4" style="fill:#013346"/><rect x="32.72" y="33.92" width="6.98" height="1.15" rx="0.57" ry="0.57" style="fill:#013346"/><rect x="31.02" y="35.98" width="10.27" height="1.15" rx="0.57" ry="0.57" style="fill:#fff"/><rect x="31.02" y="38.05" width="10.27" height="1.15" rx="0.57" ry="0.57" style="fill:#fff"/><path d="M9.73,30.15V29.06a1.61,1.61,0,0,1,1.6-1.6H24.48a1.61,1.61,0,0,1,1.6,1.6v1.09Z" style="fill:#00272a"/><path d="M28.13,30.15V29.06a1.61,1.61,0,0,1,1.6-1.6H42.88a1.61,1.61,0,0,1,1.6,1.6v1.09Z" style="fill:#00272a"/><path d="M9.73,13.2V12.1a1.61,1.61,0,0,1,1.6-1.6H42.88a1.61,1.61,0,0,1,1.6,1.6V13.2Z" style="fill:#00272a"/></svg>