<svg id="674261e3-46ab-44bd-90d3-c4cce022d5a7" data-name="Calque 1" xmlns="http://www.w3.org/2000/svg" viewBox="0 0 54.18 54.18"><title>icon-server</title><rect x="22.75" y="22.32" width="8.69" height="32.45" rx="1.6" ry="1.6" transform="translate(65.64 11.45) rotate(90)" style="fill:#a5b3bb"/><rect x="22.75" y="11.29" width="8.69" height="32.45" rx="1.6" ry="1.6" transform="translate(54.6 0.42) rotate(90)" style="fill:#a5b3bb"/><rect x="22.75" y="0.26" width="8.69" height="32.45" rx="1.6" ry="1.6" transform="translate(43.57 -10.61) rotate(90)" style="fill:#a5b3bb"/><circle cx="38.87" cy="38.54" r="1.61" style="fill:#fff"/><rect x="13.71" y="37.58" width="20.35" height="1.93" rx="0.96" ry="0.96" style="fill:#fff"/><path d="M24.14,37.58h9a1,1,0,0,1,1,1h0a1,1,0,0,1-1,1h-9Z" style="fill:#00272a"/><circle cx="38.87" cy="27.51" r="1.61" style="fill:#fff"/><rect x="13.71" y="26.55" width="20.35" height="1.93" rx="0.96" ry="0.96" style="fill:#fff"/><path d="M21.14,26.55h12a1,1,0,0,1,1,1h0a1,1,0,0,1-1,1h-12Z" style="fill:#00272a"/><circle cx="38.87" cy="16.48" r="1.61" style="fill:#fff"/><rect x="13.71" y="15.51" width="20.35" height="1.93" rx="0.96" ry="0.96" style="fill:#fff"/><path d="M29.14,15.51h4a1,1,0,0,1,1,1h0a1,1,0,0,1-1,1h-4Z" style="fill:#00272a"/></svg>