<svg id="Calque_1" data-name="Calque 1" xmlns="http://www.w3.org/2000/svg" viewBox="0 0 54.18 54.18"><defs><style>.cls-1{fill:#00272a;}.cls-2{fill:#a5b3bb;}</style></defs><title>icon-notif</title><circle class="cls-1" cx="27.09" cy="38.05" r="4.62"/><rect class="cls-1" x="25.5" y="11.56" width="3.18" height="3.23" rx="1.59" ry="1.59" transform="translate(13.91 40.27) rotate(-90)"/><path class="cls-2" d="M39.06,34.72h0a1.6,1.6,0,0,1-1.59-1.59V23.8a1.57,1.57,0,0,0,0-.24,10.32,10.32,0,0,0-20.62,0,1.57,1.57,0,0,0,0,.24v9.33a1.6,1.6,0,0,1-1.59,1.59h0a1.59,1.59,0,1,0,0,3.18H39.06a1.59,1.59,0,1,0,0-3.18Z"/></svg>