<svg id="Calque_1" data-name="Calque 1" xmlns="http://www.w3.org/2000/svg" viewBox="0 0 54.18 54.18"><defs><style>.cls-1{fill:#a5b3bb;}.cls-2,.cls-3,.cls-5{fill:none;stroke-miterlimit:10;}.cls-2{stroke:#013346;}.cls-2,.cls-3{stroke-width:2px;}.cls-3,.cls-5{stroke:#fff;}.cls-4{fill:#fff;}.cls-6{fill:#013346;}.cls-7{fill:#00272a;}</style></defs><title>icon-panes</title><rect class="cls-1" x="19.61" y="0.62" width="14.97" height="34.72" rx="1.6" ry="1.6" transform="translate(45.07 -9.11) rotate(90)"/><rect class="cls-1" x="28.16" y="27.39" width="16.23" height="16.35" rx="1.6" ry="1.6" transform="translate(71.84 -0.71) rotate(90)"/><rect class="cls-1" x="9.79" y="27.39" width="16.23" height="16.35" rx="1.6" ry="1.6" transform="translate(53.48 17.66) rotate(90)"/><path class="cls-2" d="M14,38.62a3.75,3.75,0,0,1,7.51,0"/><path class="cls-3" d="M14,39.06A3.75,3.75,0,0,1,15.59,36"/><circle class="cls-4" cx="17" cy="21.64" r="1.4"/><circle class="cls-4" cx="23.43" cy="19.83" r="1.4"/><circle class="cls-4" cx="36.31" cy="21.21" r="1.4"/><polyline class="cls-5" points="17 21.64 23.43 19.83 29.87 17.02 36.31 21.2"/><circle class="cls-6" cx="29.87" cy="17.02" r="1.4"/><rect class="cls-6" x="32.72" y="33.92" width="6.98" height="1.15" rx="0.57" ry="0.57"/><rect class="cls-4" x="31.02" y="35.98" width="10.27" height="1.15" rx="0.57" ry="0.57"/><rect class="cls-4" x="31.02" y="38.05" width="10.27" height="1.15" rx="0.57" ry="0.57"/><path class="cls-7" d="M9.73,30.15V29.06a1.61,1.61,0,0,1,1.6-1.6H24.48a1.61,1.61,0,0,1,1.6,1.6v1.09Z"/><path class="cls-7" d="M28.13,30.15V29.06a1.61,1.61,0,0,1,1.6-1.6H42.88a1.61,1.61,0,0,1,1.6,1.6v1.09Z"/><path class="cls-7" d="M9.73,13.2V12.1a1.61,1.61,0,0,1,1.6-1.6H42.88a1.61,1.61,0,0,1,1.6,1.6V13.2Z"/></svg>