<svg id="65464c83-2812-4e70-85a8-2ff28340ff19" data-name="Calque 1" xmlns="http://www.w3.org/2000/svg" viewBox="0 0 54.18 54.18"><title>icon-world</title><path d="M9.89,26.09h6.85a.5.5,0,0,0,.49-.48,32.44,32.44,0,0,1,1-7,.49.49,0,0,0-.35-.6,24,24,0,0,1-4.38-1.69.5.5,0,0,0-.63.14,17.68,17.68,0,0,0-3.53,9.13A.51.51,0,0,0,9.89,26.09Z" style="fill:#a5b3bb"/><path d="M12.79,36.78a22.6,22.6,0,0,1,4.8-2,.49.49,0,0,0,.34-.57,33.27,33.27,0,0,1-.7-5.63.5.5,0,0,0-.49-.48H9.88a.51.51,0,0,0-.51.54,17.49,17.49,0,0,0,2.74,8A.5.5,0,0,0,12.79,36.78Z" style="fill:#a5b3bb"/><path d="M21.94,43.11A17.87,17.87,0,0,1,18.71,37a.51.51,0,0,0-.62-.33,21.18,21.18,0,0,0-3.95,1.6.51.51,0,0,0-.13.78,17.57,17.57,0,0,0,7.38,4.8A.5.5,0,0,0,21.94,43.11Z" style="fill:#a5b3bb"/><path d="M21.4,10.28A17.79,17.79,0,0,0,15.07,14a.5.5,0,0,0,.13.82,23,23,0,0,0,3.4,1.22.51.51,0,0,0,.6-.3,16.65,16.65,0,0,1,2.73-4.7A.5.5,0,0,0,21.4,10.28Z" style="fill:#a5b3bb"/><path d="M25.53,28.09H19.74a.5.5,0,0,0-.51.53,31.92,31.92,0,0,0,.67,5.08.49.49,0,0,0,.58.38,34.6,34.6,0,0,1,5.07-.56A.49.49,0,0,0,26,33V28.59A.5.5,0,0,0,25.53,28.09Z" style="fill:#a5b3bb"/><path d="M26,42.92V36a.5.5,0,0,0-.53-.5,32.68,32.68,0,0,0-4.4.49.51.51,0,0,0-.39.66c1.07,3.2,2.66,5.74,4.59,6.72A.5.5,0,0,0,26,42.92Z" style="fill:#a5b3bb"/><path d="M24.78,11.17a11.49,11.49,0,0,0-3.53,4.88.51.51,0,0,0,.38.7,33,33,0,0,0,3.87.39.5.5,0,0,0,.53-.51v-4.4C26,11.19,25.3,10.81,24.78,11.17Z" style="fill:#a5b3bb"/><path d="M25.55,19.15a34.71,34.71,0,0,1-4.75-.52.49.49,0,0,0-.57.35,30,30,0,0,0-1,6.58.5.5,0,0,0,.5.53h5.79a.5.5,0,0,0,.5-.5V19.64A.49.49,0,0,0,25.55,19.15Z" style="fill:#a5b3bb"/><path d="M44.67,25.54a17.69,17.69,0,0,0-3.53-9.13.5.5,0,0,0-.63-.14A24,24,0,0,1,36.14,18a.49.49,0,0,0-.35.6,32.27,32.27,0,0,1,1,6.75.79.79,0,0,0,.79.77h6.57A.51.51,0,0,0,44.67,25.54Z" style="fill:#00272a"/><path d="M34.32,28.09H28.83a.8.8,0,0,0-.8.8V33a.49.49,0,0,0,.48.49,34.58,34.58,0,0,1,5.1.57.49.49,0,0,0,.58-.38,31.06,31.06,0,0,0,.63-5.08A.5.5,0,0,0,34.32,28.09Z" style="fill:#00272a"/><path d="M28.76,43.32c1.76-1,3.45-3.31,4.61-6.65A.51.51,0,0,0,33,36a32.67,32.67,0,0,0-4.43-.49A.51.51,0,0,0,28,36v6.86A.5.5,0,0,0,28.76,43.32Z" style="fill:#00272a"/><path d="M35.46,16.09a23,23,0,0,0,3.4-1.22A.5.5,0,0,0,39,14a17.8,17.8,0,0,0-6.33-3.76.5.5,0,0,0-.52.8,16.65,16.65,0,0,1,2.73,4.7A.51.51,0,0,0,35.46,16.09Z" style="fill:#00272a"/><path d="M33.22,18.64a34.75,34.75,0,0,1-4.72.51.49.49,0,0,0-.48.49v5.94a.5.5,0,0,0,.5.5h5.79a.51.51,0,0,0,.51-.53,31.51,31.51,0,0,0-1-6.57A.49.49,0,0,0,33.22,18.64Z" style="fill:#00272a"/><path d="M44.17,28.09H37.32a.5.5,0,0,0-.49.48,33.26,33.26,0,0,1-.7,5.63.49.49,0,0,0,.34.57,22.58,22.58,0,0,1,4.8,2,.5.5,0,0,0,.67-.16,17.49,17.49,0,0,0,2.74-8A.51.51,0,0,0,44.17,28.09Z" style="fill:#00272a"/><path d="M35.35,37a17.87,17.87,0,0,1-3.23,6.06.5.5,0,0,0,.55.79A17.57,17.57,0,0,0,40,39.1a.51.51,0,0,0-.13-.78A21.18,21.18,0,0,0,36,36.72.51.51,0,0,0,35.35,37Z" style="fill:#00272a"/><path d="M28,11.25v5c0,.67.24.9.53.88a33,33,0,0,0,3.87-.39.51.51,0,0,0,.38-.69c-1-2.51-2.42-4.44-4-5.27A.51.51,0,0,0,28,11.25Z" style="fill:#00272a"/></svg>