<svg id="6ed82e4a-9ceb-4a0c-9174-ad627408d5f5" data-name="Calque 1" xmlns="http://www.w3.org/2000/svg" viewBox="0 0 54.18 54.18"><title>icon-scale</title><rect x="16.07" y="25.85" width="23.12" height="2.88" rx="1" ry="1" transform="translate(-11.2 27.53) rotate(-45)" style="fill:#00272a"/><path d="M11.32,13v28.5a2,2,0,0,0,2,2h28.5a2,2,0,0,0,2-2V13a2,2,0,0,0-2-2H13.32A2,2,0,0,0,11.32,13ZM40,40.25H15.12a.51.51,0,0,1-.51-.51V14.85a.51.51,0,0,1,.51-.51H40a.51.51,0,0,1,.51.51V39.74A.51.51,0,0,1,40,40.25Z" style="fill:#00272a"/><path d="M37.67,24.71V18a.84.84,0,0,0-.84-.84H30.15a.84.84,0,0,0-.59,1.43l6.68,6.68A.84.84,0,0,0,37.67,24.71Z" style="fill:#a5b3bb"/><path d="M25.06,37.33H18.37a.84.84,0,0,1-.84-.84V29.81A.84.84,0,0,1,19,29.22l6.68,6.68A.84.84,0,0,1,25.06,37.33Z" style="fill:#00272a"/></svg>