<svg id="702a61d6-2589-4a0c-af99-6f3de40a40bc" data-name="Calque 1" xmlns="http://www.w3.org/2000/svg" viewBox="0 0 54.18 54.18"><title>icon-tv</title><path d="M27.09,17.62A119.79,119.79,0,0,1,8.36,16.29V37.21a119.79,119.79,0,0,1,18.73-1.33,119.79,119.79,0,0,1,18.73,1.33V16.29A119.79,119.79,0,0,1,27.09,17.62Z" style="fill:#00272a"/><path d="M29.38,27.58l-4,2.31a.57.57,0,0,1-.85-.49V24.78a.57.57,0,0,1,.85-.49l4,2.31A.57.57,0,0,1,29.38,27.58Z" style="fill:#fff"/><path d="M13.33,16.93c-3.15-.33-5-.64-5-.64V37.21s1.82-.32,5-.64Z" style="fill:#a5b3bb"/><path d="M40.85,16.93c3.15-.33,5-.64,5-.64V37.21s-1.82-.32-5-.64Z" style="fill:#a5b3bb"/></svg>