<svg id="Calque_1" data-name="Calque 1" xmlns="http://www.w3.org/2000/svg" viewBox="0 0 54.18 54.18"><defs><style>.cls-1{fill:#a5b3bb;}.cls-2{fill:#fff;}.cls-3{fill:#00272a;}</style></defs><title>icon-image</title><rect class="cls-1" x="8.43" y="11.53" width="37.33" height="31.12" rx="3.5" ry="3.5"/><path class="cls-2" d="M42.26,13a2,2,0,0,1,2,2V39.15a2,2,0,0,1-2,2H11.93a2,2,0,0,1-2-2V15a2,2,0,0,1,2-2H42.26m0-3H11.93a5,5,0,0,0-5,5V39.15a5,5,0,0,0,5,5H42.26a5,5,0,0,0,5-5V15a5,5,0,0,0-5-5Z"/><circle class="cls-2" cx="17.93" cy="19.37" r="3.09"/><path class="cls-3" d="M11.76,42.65a3.32,3.32,0,0,1-2.25-.89L8.24,40.59l14.64-12,3.38,4.17,9.36-11.4,10,19.2-.58.76a3.3,3.3,0,0,1-2.65,1.32Z"/><path class="cls-2" d="M35.34,24.07l8.54,16.35a1.82,1.82,0,0,1-1.45.73H11.76a1.82,1.82,0,0,1-1.24-.49l12.14-9.95,3.59,4.43,9.09-11.07m.56-5.41L33,22.17,26.27,30.4,25,28.83l-1.9-2.34L20.76,28.4,8.62,38.34,5.95,40.53l2.54,2.34a4.82,4.82,0,0,0,3.27,1.28H42.42a4.79,4.79,0,0,0,3.84-1.91l1.16-1.52L46.54,39,38,22.68l-2.1-4Z"/></svg>