<svg id="Calque_1" data-name="Calque 1" xmlns="http://www.w3.org/2000/svg" viewBox="0 0 54.18 54.18"><defs><style>.cls-1{fill:#a5b3bb;}.cls-2{fill:#fff;}.cls-3{fill:#00272a;}</style></defs><title>icon-server</title><rect class="cls-1" x="22.75" y="22.32" width="8.69" height="32.45" rx="1.6" ry="1.6" transform="translate(65.64 11.45) rotate(90)"/><rect class="cls-1" x="22.75" y="11.29" width="8.69" height="32.45" rx="1.6" ry="1.6" transform="translate(54.6 0.42) rotate(90)"/><rect class="cls-1" x="22.75" y="0.26" width="8.69" height="32.45" rx="1.6" ry="1.6" transform="translate(43.57 -10.61) rotate(90)"/><circle class="cls-2" cx="38.87" cy="38.54" r="1.61"/><rect class="cls-2" x="13.71" y="37.58" width="20.35" height="1.93" rx="0.96" ry="0.96"/><path class="cls-3" d="M24.14,37.58h9a1,1,0,0,1,1,1h0a1,1,0,0,1-1,1h-9Z"/><circle class="cls-2" cx="38.87" cy="27.51" r="1.61"/><rect class="cls-2" x="13.71" y="26.55" width="20.35" height="1.93" rx="0.96" ry="0.96"/><path class="cls-3" d="M21.14,26.55h12a1,1,0,0,1,1,1h0a1,1,0,0,1-1,1h-12Z"/><circle class="cls-2" cx="38.87" cy="16.48" r="1.61"/><rect class="cls-2" x="13.71" y="15.51" width="20.35" height="1.93" rx="0.96" ry="0.96"/><path class="cls-3" d="M29.14,15.51h4a1,1,0,0,1,1,1h0a1,1,0,0,1-1,1h-4Z"/></svg>