<svg id="Calque_1" data-name="Calque 1" xmlns="http://www.w3.org/2000/svg" viewBox="0 0 54.18 54.18"><defs><style>.cls-1{fill:#a5b3bb;}.cls-2{fill:#00272a;}</style></defs><title>icon-work</title><rect class="cls-1" x="25.5" y="16.63" width="4.97" height="18.63" rx="2" ry="2" transform="translate(26.54 -12.19) rotate(45)"/><path class="cls-1" d="M31.59,25.11l-2.77-2.77a2,2,0,0,0-2.83,0L9.38,39a2,2,0,0,0,0,2.83l2.77,2.77a2,2,0,0,0,2.83,0L31.59,27.94A2,2,0,0,0,31.59,25.11ZM13.71,41.85a1.63,1.63,0,1,1,1.63-1.63A1.63,1.63,0,0,1,13.71,41.85Z"/><path class="cls-2" d="M42.49,22a7.42,7.42,0,0,0,2.17-5.68.65.65,0,0,0-1.1-.44l-2.37,2.37a1.08,1.08,0,0,1-.77.32H36a.64.64,0,0,1-.64-.64V15.67h0V13.51a1.08,1.08,0,0,1,.32-.77l2.37-2.37a.65.65,0,0,0-.44-1.1A7.45,7.45,0,0,0,31.95,22h0A7.46,7.46,0,0,0,42.49,22Z"/></svg>