<svg id="c042aab4-3655-4318-8fb1-7090e922d8e3" data-name="Calque 1" xmlns="http://www.w3.org/2000/svg" viewBox="0 0 54.18 54.18"><title>icon-cost</title><path d="M21.18,33.52A12.34,12.34,0,1,1,33.52,21.18,12.36,12.36,0,0,1,21.18,33.52Z" style="fill:#a5b3bb"/><path d="M21.18,9.71A11.47,11.47,0,1,1,9.71,21.18,11.47,11.47,0,0,1,21.18,9.71m0-1.74A13.21,13.21,0,1,0,34.39,21.18,13.23,13.23,0,0,0,21.18,8Z" style="fill:#fff"/><path d="M21.18,30.49a9.31,9.31,0,1,1,9.31-9.31A9.32,9.32,0,0,1,21.18,30.49Zm0-17.75a8.44,8.44,0,1,0,8.44,8.44A8.45,8.45,0,0,0,21.18,12.74Z" style="fill:#fff"/><path d="M18.9,24a.3.3,0,0,1,.42-.18,3.64,3.64,0,0,0,1.53.38c1,0,1.49-.51,1.49-1.14s-.4-1-1.43-1.41c-1.38-.49-2-1.25-2-2.17a2.37,2.37,0,0,1,2.65-2.25,4,4,0,0,1,1.65.35.3.3,0,0,1,.15.37l-.15.45a.3.3,0,0,1-.4.18,3.61,3.61,0,0,0-1.28-.31c-.82,0-1.28.48-1.28,1s.46.92,1.46,1.3c1.33.51,2,1.17,2,2.31,0,1.35-1,2.3-2.87,2.3a4.58,4.58,0,0,1-1.93-.4.3.3,0,0,1-.15-.37Z" style="fill:#fff"/><path d="M20.92,16.23h.35a.39.39,0,0,1,.39.39v.74a0,0,0,0,1,0,0H20.52a0,0,0,0,1,0,0v-.74A.39.39,0,0,1,20.92,16.23Z" style="fill:#fff"/><path d="M21.1,25h.35a.39.39,0,0,1,.39.39v.74a0,0,0,0,1,0,0H20.71a0,0,0,0,1,0,0v-.74A.39.39,0,0,1,21.1,25Z" transform="translate(42.55 51.13) rotate(180)" style="fill:#fff"/><circle cx="30.79" cy="31.36" r="8.2" style="fill:#a5b3bb"/><path d="M30.79,23.75a7.62,7.62,0,1,1-7.62,7.62,7.62,7.62,0,0,1,7.62-7.62m0-1.16a8.77,8.77,0,1,0,8.77,8.77,8.78,8.78,0,0,0-8.77-8.77Z" style="fill:#fff"/><path d="M30.79,37.55A6.18,6.18,0,1,1,37,31.36,6.19,6.19,0,0,1,30.79,37.55Zm0-11.79a5.61,5.61,0,1,0,5.61,5.61A5.61,5.61,0,0,0,30.79,25.76Z" style="fill:#fff"/><path d="M29,33.5a.23.23,0,0,1,.33-.14,2.8,2.8,0,0,0,1.18.29c.78,0,1.15-.39,1.15-.88s-.3-.79-1.1-1.09C29.52,31.31,29,30.72,29,30a1.82,1.82,0,0,1,2-1.73,3.06,3.06,0,0,1,1.27.27.23.23,0,0,1,.11.29l-.12.35a.23.23,0,0,1-.31.14,2.78,2.78,0,0,0-1-.24c-.63,0-1,.37-1,.81s.35.71,1.12,1c1,.39,1.55.9,1.55,1.78,0,1-.8,1.77-2.21,1.77A3.53,3.53,0,0,1,29,34.14a.23.23,0,0,1-.11-.29Z" style="fill:#fff"/><path d="M30.6,27.55h.23a.32.32,0,0,1,.32.32v.55a0,0,0,0,1,0,0h-.87a0,0,0,0,1,0,0v-.55A.32.32,0,0,1,30.6,27.55Z" style="fill:#fff"/><path d="M30.74,34.3H31a.32.32,0,0,1,.32.32v.55a0,0,0,0,1,0,0h-.87a0,0,0,0,1,0,0v-.55A.32.32,0,0,1,30.74,34.3Z" transform="translate(61.71 69.47) rotate(180)" style="fill:#fff"/><circle cx="39.4" cy="39.4" r="6.49" style="fill:#a5b3bb"/><path d="M39.4,33.37a6,6,0,1,1-6,6,6,6,0,0,1,6-6m0-.92a6.95,6.95,0,1,0,6.95,6.95,7,7,0,0,0-6.95-6.95Z" style="fill:#fff"/><path d="M39.4,44.3a4.9,4.9,0,1,1,4.9-4.9A4.9,4.9,0,0,1,39.4,44.3Zm0-9.33a4.44,4.44,0,1,0,4.44,4.44A4.44,4.44,0,0,0,39.4,35Z" style="fill:#fff"/><path d="M38,41.06a.18.18,0,0,1,.25-.11,2.17,2.17,0,0,0,.91.23c.61,0,.89-.3.89-.68s-.24-.62-.85-.84c-.82-.29-1.21-.75-1.21-1.3A1.41,1.41,0,0,1,39.62,37a2.38,2.38,0,0,1,1,.21.18.18,0,0,1,.09.22l-.09.27a.18.18,0,0,1-.24.11,2.16,2.16,0,0,0-.76-.19c-.49,0-.77.28-.77.63s.27.55.87.78c.8.3,1.2.7,1.2,1.38s-.62,1.37-1.72,1.37A2.74,2.74,0,0,1,38,41.56a.18.18,0,0,1-.09-.22Z" style="fill:#fff"/><path d="M39.31,36.44h.08a.3.3,0,0,1,.3.3v.38a0,0,0,0,1,0,0H39a0,0,0,0,1,0,0v-.38A.3.3,0,0,1,39.31,36.44Z" style="fill:#fff"/><path d="M39.42,41.68h.08a.3.3,0,0,1,.3.3v.38a0,0,0,0,1,0,0h-.68a0,0,0,0,1,0,0V42a.3.3,0,0,1,.3-.3Z" transform="translate(78.91 84.05) rotate(180)" style="fill:#fff"/></svg>