<svg id="Calque_1" data-name="Calque 1" xmlns="http://www.w3.org/2000/svg" viewBox="0 0 54.18 54.18"><defs><style>.cls-1{fill:#00272a;}.cls-2{fill:#a5b3bb;}.cls-3{fill:#fff;}</style></defs><title>icon-sheet</title><path class="cls-1" d="M37.49,43.42H16.69a2,2,0,0,1-2-2V20.36l9.42-9.6H37.49a2,2,0,0,1,2,2V41.42A2,2,0,0,1,37.49,43.42Z"/><path class="cls-2" d="M22.18,20.24a2,2,0,0,0,2-2V10.76l-9.48,9.48Z"/><rect class="cls-3" x="26.6" y="15.84" width="8.9" height="2" rx="1" ry="1"/><rect class="cls-3" x="19.23" y="25.29" width="16.28" height="2" rx="1" ry="1"/><rect class="cls-3" x="19.23" y="29.62" width="16.28" height="2" rx="1" ry="1"/><rect class="cls-3" x="19.23" y="33.96" width="16.28" height="2" rx="1" ry="1"/></svg>