<svg id="Calque_1" data-name="Calque 1" xmlns="http://www.w3.org/2000/svg" viewBox="0 0 54.18 54.18"><defs><style>.cls-1{fill:#a5b3bb;}.cls-2{fill:#00272a;}.cls-3{fill:#fff;}</style></defs><title>icon-Home</title><path class="cls-1" d="M31.2,45.87H41.91a2.67,2.67,0,0,0,2.67-2.67V24.45A2.67,2.67,0,0,0,43,22L27.24,8.94,11.29,22.05a2.67,2.67,0,0,0-1.5,2.4V43.2a2.67,2.67,0,0,0,2.68,2.67h10.7V36.76a1.62,1.62,0,0,1,1.63-1.59h4.78a1.61,1.61,0,0,1,1.62,1.59h0v9.11Zm-4-16.59a3.48,3.48,0,1,0,0-7h0a3.48,3.48,0,1,0,0,7Z"/><path class="cls-2" d="M27.09,8.32a1.08,1.08,0,0,0-.82.23L7.15,24A1.07,1.07,0,0,0,7,25.53l0,0L9,28a1.09,1.09,0,0,0,1.52.16L27.09,14.77,43.66,28.19A1.1,1.1,0,0,0,45.19,28l2-2.48A1.07,1.07,0,0,0,47.05,24l0,0L27.91,8.55A1.08,1.08,0,0,0,27.09,8.32Z"/><circle class="cls-3" cx="27.18" cy="25.8" r="3.47"/></svg>