<svg id="Calque_1" data-name="Calque 1" xmlns="http://www.w3.org/2000/svg" viewBox="0 0 54.18 54.18"><defs><style>.cls-1{fill:#a5b3bb;}.cls-2{fill:#fff;}.cls-3{fill:#00272a;}</style></defs><title>icon-export</title><path class="cls-1" d="M35.74,32.42c-4.3,0-11.59-1-11.59-4.6v-7H47.32v7C47.32,31.45,40,32.42,35.74,32.42Z"/><path class="cls-2" d="M45.82,22.34v5.47c0,1.71-4.52,3.1-10.09,3.1s-10.09-1.39-10.09-3.1V22.34H45.82m3-3H22.65v8.47c0,4.5,6.76,6.1,13.09,6.1s13.09-1.6,13.09-6.1V19.34Z"/><path class="cls-1" d="M35.74,24.45c-4.3,0-11.59-1-11.59-4.6v-7H47.32v7C47.32,23.48,40,24.45,35.74,24.45Z"/><path class="cls-2" d="M45.82,14.37v5.47c0,1.71-4.52,3.1-10.09,3.1s-10.09-1.39-10.09-3.1V14.37H45.82m3-3H22.65v8.47c0,4.5,6.76,6.1,13.09,6.1s13.09-1.6,13.09-6.1V11.37Z"/><path class="cls-1" d="M35.74,16c-4.3,0-11.59-1-11.59-4.6s7.28-4.6,11.59-4.6,11.59,1,11.59,4.6S40,16,35.74,16Z"/><path class="cls-2" d="M35.74,8.34c5.57,0,10.09,1.39,10.09,3.1s-4.52,3.1-10.09,3.1-10.09-1.39-10.09-3.1,4.52-3.1,10.09-3.1m0-3c-6.33,0-13.09,1.6-13.09,6.1s6.76,6.1,13.09,6.1,13.09-1.6,13.09-6.1-6.76-6.1-13.09-6.1Z"/><path class="cls-3" d="M20.5,45.47c-5.16,0-13.89-1.16-13.89-5.48V31.65H34.4V40C34.4,44.32,25.66,45.47,20.5,45.47Z"/><path class="cls-2" d="M32.65,33.4V40c0,2.06-5.44,3.73-12.14,3.73S8.36,42,8.36,40V33.4H32.65m3.5-3.5H4.86V40c0,5.33,8.08,7.23,15.64,7.23S36.15,45.32,36.15,40V29.9Z"/><path class="cls-3" d="M20.5,35.35c-5.16,0-13.89-1.16-13.89-5.48s8.73-5.48,13.89-5.48S34.4,25.53,34.4,29.86,25.66,35.35,20.5,35.35Z"/><path class="cls-2" d="M20.5,26.13c6.71,0,12.14,1.67,12.14,3.73S27.21,33.6,20.5,33.6,8.36,31.93,8.36,29.86s5.44-3.73,12.14-3.73m0-3.5c-7.56,0-15.64,1.9-15.64,7.23S12.94,37.1,20.5,37.1s15.64-1.9,15.64-7.23-8.08-7.23-15.64-7.23Z"/><path class="cls-3" d="M17.67,28.89a1.8,1.8,0,0,1-1.8-1.8v-15a2.22,2.22,0,0,1,2.22-2.22h12a2,2,0,0,1,1.44.59L34,13a2.22,2.22,0,0,1,0,3.14l-2.53,2.53a2,2,0,0,1-1.44.59h-4.8v7.86a1.8,1.8,0,0,1-1.8,1.8Z"/><path class="cls-2" d="M30.06,10.85a1,1,0,0,1,.73.3l1.45,1.45h0l1.08,1.08a1.22,1.22,0,0,1,0,1.72l-1.08,1.08h0l-1.45,1.45a1,1,0,0,1-.73.3h-5.8v8.86a.8.8,0,0,1-.8.8H17.67a.8.8,0,0,1-.8-.8v-15a1.22,1.22,0,0,1,1.22-1.22h12m0-2h-12a3.22,3.22,0,0,0-3.22,3.22v15a2.8,2.8,0,0,0,2.8,2.8h5.79a2.8,2.8,0,0,0,2.8-2.8V20.23h3.8a3,3,0,0,0,2.14-.89l1.45-1.45,1.08-1.08a3.22,3.22,0,0,0,0-4.55l-1.08-1.08L32.2,9.73a3,3,0,0,0-2.14-.89Z"/></svg>