<svg id="Calque_1" data-name="Calque 1" xmlns="http://www.w3.org/2000/svg" viewBox="0 0 54.18 54.18"><defs><style>.cls-1{fill:#a5b3bb;}.cls-2{fill:#00272a;}.cls-3{fill:#fff;}</style></defs><title>icon-table</title><rect class="cls-1" x="11.91" y="10.93" width="30.23" height="32.32" rx="1.6" ry="1.6" transform="translate(54.12 0.06) rotate(90)"/><path class="cls-2" d="M10.87,14.67V13.58a1.61,1.61,0,0,1,1.6-1.6H41.58a1.61,1.61,0,0,1,1.6,1.6v1.09Z"/><rect class="cls-2" x="14.13" y="18.35" width="4.6" height="4.6" rx="1.6" ry="1.6" transform="translate(37.09 4.22) rotate(90)"/><rect class="cls-3" x="28.98" y="11.52" width="3.21" height="18.27" rx="1.6" ry="1.6" transform="translate(51.23 -9.93) rotate(90)"/><rect class="cls-2" x="14.13" y="25.83" width="4.6" height="4.6" rx="1.6" ry="1.6" transform="translate(44.57 11.7) rotate(90)"/><rect class="cls-3" x="28.98" y="19" width="3.21" height="18.27" rx="1.6" ry="1.6" transform="translate(58.71 -2.45) rotate(90)"/><rect class="cls-2" x="14.13" y="33.31" width="4.6" height="4.6" rx="1.6" ry="1.6" transform="translate(52.05 19.18) rotate(90)"/><rect class="cls-3" x="28.98" y="26.48" width="3.21" height="18.27" rx="1.6" ry="1.6" transform="translate(66.19 5.03) rotate(90)"/></svg>