<svg id="Calque_1" data-name="Calque 1" xmlns="http://www.w3.org/2000/svg" viewBox="0 0 54.18 54.18"><defs><style>.cls-1{fill:#a5b3bb;}.cls-2{fill:#fff;}.cls-3{fill:#00272a;}</style></defs><title>icon-date</title><path class="cls-1" d="M36.4,24.71a11.78,11.78,0,0,1,1.36.09V10.53a2,2,0,0,0-2-2H30.37V9.85a1.6,1.6,0,1,1-3.2,0V8.53H19V9.85a1.6,1.6,0,1,1-3.2,0V8.53H10.44a2,2,0,0,0-2,2V32.46a2,2,0,0,0,2,2H24.87A11.7,11.7,0,0,1,36.4,24.71Z"/><rect class="cls-2" x="20.16" y="14.81" width="5.87" height="5.87" rx="1.6" ry="1.6"/><rect class="cls-3" x="28.17" y="14.81" width="5.87" height="5.87" rx="1.6" ry="1.6"/><rect class="cls-2" x="12.16" y="14.81" width="5.87" height="5.87" rx="1.6" ry="1.6" transform="translate(30.18 35.49) rotate(180)"/><rect class="cls-2" x="20.16" y="22.87" width="5.87" height="5.87" rx="1.6" ry="1.6"/><rect class="cls-2" x="28.17" y="22.87" width="5.87" height="5.87" rx="1.6" ry="1.6"/><rect class="cls-3" x="12.16" y="22.87" width="5.87" height="5.87" rx="1.6" ry="1.6" transform="translate(30.18 51.6) rotate(180)"/><path class="cls-1" d="M36.4,26.71a9.71,9.71,0,1,0,9.71,9.71A9.72,9.72,0,0,0,36.4,26.71Z"/><rect class="cls-2" x="35.33" y="29.25" width="2.12" height="7.17" rx="1.06" ry="1.06"/><rect class="cls-3" x="37.2" y="35.64" width="2.12" height="5.29" rx="1.06" ry="1.06" transform="translate(-15.87 38.27) rotate(-45)"/></svg>