<svg id="58ae2a78-1b5e-4e12-a1e1-3107530f7946" data-name="Calque 1" xmlns="http://www.w3.org/2000/svg" viewBox="0 0 54.18 54.18"><title>icon-cost-2</title><path d="M32.89,34.51c0,2.1-5.54,3.81-12.38,3.81S8.13,36.61,8.13,34.51v-3l24.76,0Z" style="fill:#a5b3bb"/><ellipse cx="20.51" cy="31.49" rx="12.38" ry="3.81" style="fill:#a5b3bb"/><path d="M20.51,35.71c-6.2,0-12.8-1.48-12.8-4.22s6.59-4.22,12.8-4.22,12.8,1.48,12.8,4.22S26.71,35.71,20.51,35.71Zm0-7.61c-7,0-12,1.79-12,3.39s4.91,3.39,12,3.39,12-1.79,12-3.39S27.56,28.1,20.51,28.1Z" style="fill:#fff"/><path d="M17.77,31.54a.33.33,0,0,1,.32.07,1.66,1.66,0,0,0,.62.52,1.6,1.6,0,0,0,1.42.1c.36-.18.34-.39,0-.78s-.42-.9.08-1.15a3.1,3.1,0,0,1,2.64.11,1.94,1.94,0,0,1,.7.55c0,.06,0,.12-.12.14l-.33.08a.34.34,0,0,1-.31-.06,1.66,1.66,0,0,0-.52-.44A1.46,1.46,0,0,0,21,30.62c-.34.17-.25.38.08.76s.45.87-.16,1.19a3.17,3.17,0,0,1-2.78-.16,2.26,2.26,0,0,1-.82-.64c0-.06,0-.12.12-.14Z" style="fill:#fff"/><path d="M22.79,30.49l-.61-.31.4-.2A.53.53,0,0,1,23,30l.19.1c.12.06.12.16,0,.22Z" style="fill:#fff"/><path d="M18.18,32.32l.61.31-.4.2a.53.53,0,0,1-.42,0l-.19-.1c-.12-.06-.12-.16,0-.22Z" style="fill:#fff"/><path d="M20.51,33.95c-5.4,0-9.64-1.08-9.64-2.46S15.11,29,20.51,29s9.64,1.08,9.64,2.46S25.91,33.95,20.51,33.95Zm0-4.71c-5.64,0-9.43,1.16-9.43,2.25s3.79,2.25,9.43,2.25,9.43-1.16,9.43-2.25S26.15,29.24,20.51,29.24Z" style="fill:#fff"/><path d="M32.89,31.22c0,2.1-5.54,3.81-12.38,3.81S8.13,33.32,8.13,31.22v-3l24.76,0Z" style="fill:#a5b3bb"/><ellipse cx="20.51" cy="28.2" rx="12.38" ry="3.81" style="fill:#a5b3bb"/><path d="M20.51,32.42c-6.2,0-12.8-1.48-12.8-4.22S14.31,24,20.51,24s12.8,1.48,12.8,4.22S26.71,32.42,20.51,32.42Zm0-7.61c-7,0-12,1.79-12,3.39s4.91,3.39,12,3.39,12-1.79,12-3.39S27.56,24.81,20.51,24.81Z" style="fill:#fff"/><path d="M17.77,28.25a.33.33,0,0,1,.32.07,1.66,1.66,0,0,0,.62.52,1.6,1.6,0,0,0,1.42.1c.36-.18.34-.39,0-.78s-.42-.9.08-1.15a3.1,3.1,0,0,1,2.64.11,1.94,1.94,0,0,1,.7.55c0,.06,0,.12-.12.14l-.33.08a.34.34,0,0,1-.31-.06,1.66,1.66,0,0,0-.52-.44A1.46,1.46,0,0,0,21,27.33c-.34.17-.25.38.08.76s.45.87-.16,1.19a3.17,3.17,0,0,1-2.78-.16,2.26,2.26,0,0,1-.82-.64c0-.06,0-.12.12-.14Z" style="fill:#fff"/><path d="M22.79,27.2l-.61-.31.4-.2a.53.53,0,0,1,.42,0l.19.1c.12.06.12.16,0,.22Z" style="fill:#fff"/><path d="M18.18,29l.61.31-.4.2a.53.53,0,0,1-.42,0l-.19-.1c-.12-.06-.12-.16,0-.22Z" style="fill:#fff"/><path d="M20.51,30.66c-5.4,0-9.64-1.08-9.64-2.46s4.23-2.46,9.64-2.46,9.64,1.08,9.64,2.46S25.91,30.66,20.51,30.66Zm0-4.71c-5.64,0-9.43,1.16-9.43,2.25s3.79,2.25,9.43,2.25,9.43-1.16,9.43-2.25S26.15,25.95,20.51,25.95Z" style="fill:#fff"/><path d="M32.89,27.93c0,2.1-5.54,3.81-12.38,3.81S8.13,30,8.13,27.93v-3l24.76,0Z" style="fill:#a5b3bb"/><ellipse cx="20.51" cy="24.91" rx="12.38" ry="3.81" style="fill:#a5b3bb"/><path d="M20.51,29.14c-6.2,0-12.8-1.48-12.8-4.22s6.59-4.22,12.8-4.22,12.8,1.48,12.8,4.22S26.71,29.14,20.51,29.14Zm0-7.61c-7,0-12,1.79-12,3.39s4.91,3.39,12,3.39,12-1.79,12-3.39S27.56,21.52,20.51,21.52Z" style="fill:#fff"/><path d="M17.77,25a.33.33,0,0,1,.32.07,1.66,1.66,0,0,0,.62.52,1.6,1.6,0,0,0,1.42.1c.36-.18.34-.39,0-.78s-.42-.9.08-1.15a3.1,3.1,0,0,1,2.64.11,1.94,1.94,0,0,1,.7.55c0,.06,0,.12-.12.14l-.33.08a.34.34,0,0,1-.31-.06,1.66,1.66,0,0,0-.52-.44A1.46,1.46,0,0,0,21,24c-.34.17-.25.38.08.76s.45.87-.16,1.19a3.17,3.17,0,0,1-2.78-.16,2.26,2.26,0,0,1-.82-.64c0-.06,0-.12.12-.14Z" style="fill:#fff"/><path d="M22.79,23.92l-.61-.31.4-.2a.53.53,0,0,1,.42,0l.19.1c.12.06.12.16,0,.22Z" style="fill:#fff"/><path d="M18.18,25.75l.61.31-.4.2a.53.53,0,0,1-.42,0l-.19-.1c-.12-.06-.12-.16,0-.22Z" style="fill:#fff"/><path d="M20.51,27.37c-5.4,0-9.64-1.08-9.64-2.46s4.23-2.46,9.64-2.46,9.64,1.08,9.64,2.46S25.91,27.37,20.51,27.37Zm0-4.71c-5.64,0-9.43,1.16-9.43,2.25s3.79,2.25,9.43,2.25,9.43-1.16,9.43-2.25S26.15,22.66,20.51,22.66Z" style="fill:#fff"/><path d="M32.89,24.65c0,2.1-5.54,3.81-12.38,3.81S8.13,26.75,8.13,24.65v-3l24.76,0Z" style="fill:#a5b3bb"/><ellipse cx="20.51" cy="21.63" rx="12.38" ry="3.81" style="fill:#a5b3bb"/><path d="M20.51,25.85c-6.2,0-12.8-1.48-12.8-4.22s6.59-4.22,12.8-4.22,12.8,1.48,12.8,4.22S26.71,25.85,20.51,25.85Zm0-7.61c-7,0-12,1.79-12,3.39S13.46,25,20.51,25s12-1.79,12-3.39S27.56,18.24,20.51,18.24Z" style="fill:#fff"/><path d="M17.77,21.68a.33.33,0,0,1,.32.07,1.66,1.66,0,0,0,.62.52,1.6,1.6,0,0,0,1.42.1c.36-.18.34-.39,0-.78s-.42-.9.08-1.15a3.1,3.1,0,0,1,2.64.11,1.94,1.94,0,0,1,.7.55c0,.06,0,.12-.12.14l-.33.08a.34.34,0,0,1-.31-.06,1.66,1.66,0,0,0-.52-.44A1.46,1.46,0,0,0,21,20.76c-.34.17-.25.38.08.76s.45.87-.16,1.19a3.17,3.17,0,0,1-2.78-.16,2.26,2.26,0,0,1-.82-.64c0-.06,0-.12.12-.14Z" style="fill:#fff"/><path d="M22.79,20.63l-.61-.31.4-.2a.53.53,0,0,1,.42,0l.19.1c.12.06.12.16,0,.22Z" style="fill:#fff"/><path d="M18.18,22.46l.61.31-.4.2A.53.53,0,0,1,18,23l-.19-.1c-.12-.06-.12-.16,0-.22Z" style="fill:#fff"/><path d="M20.51,24.09c-5.4,0-9.64-1.08-9.64-2.46s4.23-2.46,9.64-2.46,9.64,1.08,9.64,2.46S25.91,24.09,20.51,24.09Zm0-4.71c-5.64,0-9.43,1.16-9.43,2.25s3.79,2.25,9.43,2.25,9.43-1.16,9.43-2.25S26.15,19.38,20.51,19.38Z" style="fill:#fff"/><path d="M32.89,21.36c0,2.1-5.54,3.81-12.38,3.81S8.13,23.46,8.13,21.36v-3l24.76,0Z" style="fill:#a5b3bb"/><ellipse cx="20.51" cy="18.34" rx="12.38" ry="3.81" style="fill:#a5b3bb"/><path d="M20.51,22.56c-6.2,0-12.8-1.48-12.8-4.22s6.59-4.22,12.8-4.22,12.8,1.48,12.8,4.22S26.71,22.56,20.51,22.56Zm0-7.61c-7,0-12,1.79-12,3.39s4.91,3.39,12,3.39,12-1.79,12-3.39S27.56,15,20.51,15Z" style="fill:#fff"/><path d="M17.77,18.39a.33.33,0,0,1,.32.07,1.66,1.66,0,0,0,.62.52,1.6,1.6,0,0,0,1.42.1c.36-.18.34-.39,0-.78s-.42-.9.08-1.15a3.1,3.1,0,0,1,2.64.11,1.94,1.94,0,0,1,.7.55c0,.06,0,.12-.12.14l-.33.08a.34.34,0,0,1-.31-.06,1.66,1.66,0,0,0-.52-.44A1.46,1.46,0,0,0,21,17.47c-.34.17-.25.38.08.76s.45.87-.16,1.19a3.17,3.17,0,0,1-2.78-.16,2.26,2.26,0,0,1-.82-.64c0-.06,0-.12.12-.14Z" style="fill:#fff"/><path d="M22.79,17.34,22.18,17l.4-.2a.53.53,0,0,1,.42,0l.19.1c.12.06.12.16,0,.22Z" style="fill:#fff"/><path d="M18.18,19.17l.61.31-.4.2a.53.53,0,0,1-.42,0l-.19-.1c-.12-.06-.12-.16,0-.22Z" style="fill:#fff"/><path d="M20.51,20.8c-5.4,0-9.64-1.08-9.64-2.46s4.23-2.46,9.64-2.46,9.64,1.08,9.64,2.46S25.91,20.8,20.51,20.8Zm0-4.71c-5.64,0-9.43,1.16-9.43,2.25s3.79,2.25,9.43,2.25,9.43-1.16,9.43-2.25S26.15,16.09,20.51,16.09Z" style="fill:#fff"/><path d="M46.05,40.61c0,2-5.34,3.67-11.93,3.67s-11.93-1.64-11.93-3.67V37.7l23.86,0Z" style="fill:#a5b3bb"/><ellipse cx="34.12" cy="37.7" rx="11.93" ry="3.67" style="fill:#a5b3bb"/><path d="M34.12,41.79c-6,0-12.35-1.43-12.35-4.09s6.36-4.09,12.35-4.09S46.47,35,46.47,37.7,40.11,41.79,34.12,41.79Zm0-7.34c-6.79,0-11.51,1.71-11.51,3.25S27.34,41,34.12,41s11.51-1.71,11.51-3.25S40.91,34.45,34.12,34.45Z" style="fill:#fff"/><path d="M31.48,37.75a.32.32,0,0,1,.31.06,1.6,1.6,0,0,0,.6.5,1.54,1.54,0,0,0,1.36.09c.35-.18.33-.38,0-.75s-.4-.87.07-1.11a3,3,0,0,1,2.54.1,1.87,1.87,0,0,1,.67.53c0,.05,0,.11-.12.14l-.31.08a.33.33,0,0,1-.3-.06,1.6,1.6,0,0,0-.5-.42,1.41,1.41,0,0,0-1.21-.06c-.33.17-.24.36.08.73s.44.84-.16,1.14a3.06,3.06,0,0,1-2.68-.15A2.18,2.18,0,0,1,31,38c0-.05,0-.11.12-.14Z" style="fill:#fff"/><path d="M36.32,36.74l-.59-.3.38-.2a.51.51,0,0,1,.41,0l.18.09c.11.06.11.15,0,.21Z" style="fill:#fff"/><path d="M31.87,38.5l.59.3-.38.2a.51.51,0,0,1-.41,0l-.18-.09c-.11-.06-.11-.15,0-.21Z" style="fill:#fff"/><path d="M34.12,40.07c-5.21,0-9.29-1-9.29-2.37s4.08-2.37,9.29-2.37,9.29,1,9.29,2.37S39.33,40.07,34.12,40.07Zm0-4.54c-5.43,0-9.08,1.12-9.08,2.17s3.65,2.17,9.08,2.17,9.08-1.12,9.08-2.17S39.55,35.53,34.12,35.53Z" style="fill:#fff"/><path d="M46.05,37.44c0,2-5.34,3.67-11.93,3.67s-11.93-1.64-11.93-3.67V34.53l23.86,0Z" style="fill:#a5b3bb"/><ellipse cx="34.12" cy="34.53" rx="11.93" ry="3.67" style="fill:#a5b3bb"/><path d="M34.12,38.62c-6,0-12.35-1.43-12.35-4.09s6.36-4.09,12.35-4.09,12.35,1.43,12.35,4.09S40.11,38.62,34.12,38.62Zm0-7.34c-6.79,0-11.51,1.71-11.51,3.25s4.73,3.25,11.51,3.25,11.51-1.71,11.51-3.25S40.91,31.28,34.12,31.28Z" style="fill:#fff"/><path d="M31.48,34.58a.32.32,0,0,1,.31.06,1.6,1.6,0,0,0,.6.5,1.54,1.54,0,0,0,1.36.09c.35-.18.33-.38,0-.75s-.4-.87.07-1.11a3,3,0,0,1,2.54.1A1.87,1.87,0,0,1,37,34c0,.05,0,.11-.12.14l-.31.08a.33.33,0,0,1-.3-.06,1.6,1.6,0,0,0-.5-.42,1.41,1.41,0,0,0-1.21-.06c-.33.17-.24.36.08.73s.44.84-.16,1.14a3.06,3.06,0,0,1-2.68-.15A2.18,2.18,0,0,1,31,34.8c0-.05,0-.11.12-.14Z" style="fill:#fff"/><path d="M36.32,33.57l-.59-.3.38-.2a.51.51,0,0,1,.41,0l.18.09c.11.06.11.15,0,.21Z" style="fill:#fff"/><path d="M31.87,35.33l.59.3-.38.2a.51.51,0,0,1-.41,0l-.18-.09c-.11-.06-.11-.15,0-.21Z" style="fill:#fff"/><path d="M34.12,36.91c-5.21,0-9.29-1-9.29-2.37s4.08-2.37,9.29-2.37,9.29,1,9.29,2.37S39.33,36.91,34.12,36.91Zm0-4.54c-5.43,0-9.08,1.12-9.08,2.17s3.65,2.17,9.08,2.17,9.08-1.12,9.08-2.17S39.55,32.37,34.12,32.37Z" style="fill:#fff"/><path d="M38.52,20.47c-.32,2.08-6.05,2.93-12.81,1.9s-12-3.54-11.67-5.62l.45-3L39,17.51Z" style="fill:#a5b3bb"/><ellipse cx="26.73" cy="15.62" rx="3.81" ry="12.38" transform="translate(7.27 39.71) rotate(-81.36)" style="fill:#a5b3bb"/><path d="M20.34,18.47c-3.74-1.21-6.54-2.93-6.26-4.76.18-1.22,1.69-2.07,4.34-2.47a31.46,31.46,0,0,1,8.95.21c6.13.93,12.43,3.39,12,6.1C39.2,18.76,37.7,19.62,35,20a31.46,31.46,0,0,1-8.95-.21A37.33,37.33,0,0,1,20.34,18.47Zm12.48-4.91a35.91,35.91,0,0,0-5.58-1.29,30.65,30.65,0,0,0-8.7-.21c-2.16.32-3.52,1-3.64,1.77-.24,1.58,4.35,4.09,11.32,5.15a30.66,30.66,0,0,0,8.7.21c2.16-.32,3.52-1,3.64-1.77C38.73,16.31,36.54,14.76,32.82,13.56Z" style="fill:#fff"/><path d="M24,15.26a.33.33,0,0,1,.31.12,1.66,1.66,0,0,0,.53.61,1.6,1.6,0,0,0,1.39.31c.38-.13.4-.34.11-.77s-.28-1,.25-1.13a3.1,3.1,0,0,1,2.59.5,1.94,1.94,0,0,1,.61.65c0,.06,0,.11-.14.12l-.33,0a.34.34,0,0,1-.3-.11,1.66,1.66,0,0,0-.45-.51,1.46,1.46,0,0,0-1.23-.25c-.36.12-.3.34,0,.76s.32.93-.34,1.15a3.17,3.17,0,0,1-2.73-.57,2.26,2.26,0,0,1-.71-.75c0-.06,0-.11.14-.12Z" style="fill:#fff"/><path d="M29.14,15l-.56-.4.43-.14a.53.53,0,0,1,.42.06l.17.12c.11.08.09.17,0,.21Z" style="fill:#fff"/><path d="M24.3,16.1l.56.4-.43.14a.53.53,0,0,1-.42-.06l-.17-.12c-.11-.08-.09-.17,0-.21Z" style="fill:#fff"/><path d="M21.23,16.88c-.52-.17-1-.35-1.45-.53-1.25-.52-2.7-1.31-2.57-2.18S19,13,20.31,12.86a29.59,29.59,0,0,1,6.79.33,29.48,29.48,0,0,1,6.59,1.7c1.25.52,2.7,1.31,2.57,2.18s-1.76,1.19-3.1,1.32a29.59,29.59,0,0,1-6.79-.33A33.35,33.35,0,0,1,21.23,16.88Zm10.94-2.32a33.19,33.19,0,0,0-5.1-1.16,29.34,29.34,0,0,0-6.74-.33c-1.77.16-2.83.58-2.92,1.14h0c-.09.56.81,1.27,2.45,2a29.35,29.35,0,0,0,6.54,1.69,29.34,29.34,0,0,0,6.74.33C34.91,18,36,17.6,36.06,17s-.81-1.27-2.45-2C33.17,14.9,32.69,14.73,32.17,14.56Z" style="fill:#fff"/></svg>