<svg id="Calque_1" data-name="Calque 1" xmlns="http://www.w3.org/2000/svg" viewBox="0 0 54.18 54.18"><defs><style>.cls-1{fill:#00272a;}.cls-2{fill:#fff;}.cls-3{fill:#a5b3bb;}</style></defs><title>icon-tv</title><path class="cls-1" d="M27.09,17.62A119.79,119.79,0,0,1,8.36,16.29V37.21a119.79,119.79,0,0,1,18.73-1.33,119.79,119.79,0,0,1,18.73,1.33V16.29A119.79,119.79,0,0,1,27.09,17.62Z"/><path class="cls-2" d="M29.38,27.58l-4,2.31a.57.57,0,0,1-.85-.49V24.78a.57.57,0,0,1,.85-.49l4,2.31A.57.57,0,0,1,29.38,27.58Z"/><path class="cls-3" d="M13.33,16.93c-3.15-.33-5-.64-5-.64V37.21s1.82-.32,5-.64Z"/><path class="cls-3" d="M40.85,16.93c3.15-.33,5-.64,5-.64V37.21s-1.82-.32-5-.64Z"/></svg>